<?xml version="1.0" standalone="no"?>
<!DOCTYPE svg PUBLIC "-//W3C//DTD SVG 20010904//EN"
 "http://www.w3.org/TR/2001/REC-SVG-20010904/DTD/svg10.dtd">
<svg version="1.0" xmlns="http://www.w3.org/2000/svg"
 width="949.000000pt" height="493.000000pt" viewBox="0 0 949.000000 493.000000"
 preserveAspectRatio="xMidYMid meet">

<g transform="translate(0.000000,493.000000) scale(0.100000,-0.100000)"
fill="#000000" stroke="none">
<path d="M4265 3969 c-392 -18 -816 -76 -1215 -164 -308 -69 -534 -134 -912
-264 -219 -76 -613 -245 -808 -348 -151 -80 -300 -166 -300 -175 0 -4 38 -47
84 -95 l84 -88 -76 -43 c-265 -151 -549 -413 -805 -744 -37 -48 -67 -89 -67
-91 0 -5 86 -146 93 -154 3 -2 32 9 66 26 84 43 195 86 270 105 95 24 253 39
335 31 l71 -6 1 -197 c0 -188 2 -202 32 -312 17 -63 44 -146 60 -185 l29 -70
114 -23 c64 -13 115 -19 117 -14 1 5 31 59 66 120 274 476 734 808 1226 883
44 7 80 15 80 19 0 4 -63 85 -140 181 -77 96 -140 176 -140 180 0 12 535 175
709 215 201 47 613 108 861 128 829 66 1640 -27 2408 -276 l183 -59 -33 -42
c-18 -23 -84 -104 -145 -180 -62 -77 -113 -143 -113 -147 0 -4 27 -10 60 -14
79 -9 285 -66 379 -105 217 -91 461 -263 612 -433 102 -114 222 -282 274 -380
26 -51 49 -94 50 -96 1 -1 53 8 115 20 l113 23 19 45 c79 182 112 356 107 570
l-4 149 72 7 c176 16 409 -37 607 -137 35 -18 63 -26 68 -21 5 5 27 40 49 78
48 82 53 68 -80 231 -242 298 -526 550 -774 687 l-67 38 79 86 c63 68 77 90
68 99 -36 37 -650 331 -882 423 -44 18 -98 40 -120 49 -127 55 -331 123 -605
202 -742 214 -1505 304 -2275 268z m790 -80 c973 -65 1849 -311 2789 -781
l206 -103 -83 -91 c-45 -50 -170 -185 -277 -299 -107 -114 -214 -229 -237
-255 l-43 -48 -130 65 c-541 267 -1234 468 -1901 553 -836 106 -1713 34 -2523
-207 -83 -25 -167 -49 -186 -55 -143 -42 -579 -216 -782 -313 -69 -33 -94 -40
-102 -32 -466 486 -646 676 -646 681 0 20 410 224 675 336 794 336 1710 536
2580 563 142 5 496 -3 660 -14z m-3782 -1129 c12 -18 316 -338 457 -481 l55
-56 120 -18 c66 -10 124 -20 128 -22 4 -3 -25 -20 -65 -40 -295 -141 -561
-387 -715 -662 l-47 -85 -13 45 c-8 24 -21 87 -29 139 -19 115 -14 338 11 445
30 134 31 122 -6 131 -53 12 -334 8 -439 -5 -52 -7 -135 -21 -184 -32 -49 -10
-91 -17 -93 -16 -6 6 191 220 278 301 96 91 236 204 324 263 65 44 186 113
197 113 4 0 13 -9 21 -20z m6740 -6 c128 -65 317 -207 471 -354 99 -95 279
-290 273 -296 -2 -3 -34 3 -71 11 -135 31 -283 47 -451 47 -93 1 -184 -2 -202
-6 l-32 -7 13 -37 c30 -85 41 -181 41 -347 0 -163 -13 -264 -43 -345 -9 -24
-10 -23 -37 30 -138 275 -421 546 -722 691 l-88 43 128 21 128 21 57 59 c32
33 149 158 261 278 112 119 207 217 212 217 6 0 33 -12 62 -26z"/>
<path d="M4571 3720 c-112 -17 -183 -105 -189 -235 -2 -39 1 -89 7 -112 18
-65 70 -135 121 -161 41 -21 56 -23 160 -20 90 2 122 7 143 21 19 12 27 14 27
5 0 -7 11 -36 24 -64 25 -55 73 -98 120 -110 26 -6 28 -5 21 12 -4 10 -11 73
-15 139 -13 212 -63 267 -245 263 l-80 -1 63 -6 c80 -8 96 -25 88 -94 -10 -93
-67 -157 -139 -157 -72 0 -87 46 -87 259 0 177 10 225 51 247 31 16 95 7 148
-21 40 -20 99 -89 118 -138 l18 -42 6 30 c4 17 7 65 8 108 1 71 0 77 -15 63
-27 -27 -62 -30 -120 -7 -64 24 -158 33 -233 21z"/>
<path d="M5070 3698 c0 -4 14 -8 30 -8 17 0 30 -5 30 -12 0 -7 -7 -101 -15
-208 -8 -107 -16 -213 -17 -235 -3 -37 -5 -40 -38 -46 -38 -6 -56 -3 245 -35
77 -8 156 -17 176 -20 l35 -5 12 89 c16 118 15 126 -8 68 -24 -62 -74 -114
-117 -122 -18 -3 -54 -3 -79 1 l-46 7 6 71 c4 40 9 96 13 126 l6 53 41 -5 c49
-7 86 -44 86 -88 0 -16 4 -29 8 -29 5 0 14 42 20 94 16 128 15 138 -9 94 -10
-21 -28 -42 -38 -48 -20 -10 -94 -14 -102 -5 -4 3 14 211 20 234 2 6 97 -9
131 -20 42 -15 80 -76 80 -130 0 -65 14 -36 25 52 13 92 24 82 -110 98 -184
23 -385 38 -385 29z"/>
<path d="M4000 3694 c-316 -37 -490 -61 -499 -70 -2 -2 12 -4 33 -4 28 0 38
-5 45 -22 11 -27 53 -304 55 -357 1 -48 -28 -86 -81 -107 -38 -15 -47 -15 -80
-3 -52 20 -66 53 -103 254 -17 94 -33 178 -36 188 -4 12 0 17 15 17 12 0 21 4
21 8 0 10 -263 -42 -295 -58 -15 -7 -9 -8 22 -3 38 5 43 3 48 -18 3 -13 21
-96 40 -184 19 -88 42 -174 50 -191 26 -49 69 -69 150 -68 133 1 242 54 260
127 4 14 -5 103 -19 197 -30 197 -31 226 -12 233 8 3 41 9 73 12 l59 7 17
-138 c10 -77 24 -188 32 -249 8 -60 15 -111 15 -112 0 -2 -10 -3 -22 -3 -13 0
-30 -5 -38 -11 -12 -8 -10 -10 9 -5 14 3 77 10 140 17 64 6 127 15 141 20 19
7 15 7 -16 3 l-40 -5 -13 121 c-7 67 -10 124 -8 127 3 2 41 -40 85 -95 44 -54
93 -107 109 -118 29 -20 121 -28 192 -17 28 5 32 8 20 17 -8 6 -46 49 -84 96
-80 99 -93 109 -154 132 l-46 16 45 1 c51 2 116 28 144 59 23 27 25 92 3 125
-33 51 -148 76 -277 61z m40 -39 c16 -9 36 -29 45 -45 19 -36 19 -109 1 -133
-16 -21 -117 -41 -127 -25 -4 6 -10 49 -14 97 -3 47 -9 94 -11 104 -5 14 1 17
36 17 22 0 54 -7 70 -15z"/>
<path d="M5683 3628 c46 -12 46 -1 -2 -283 l-37 -220 -40 1 c-37 2 -37 2 -9
-6 52 -15 286 -52 291 -47 3 2 -11 8 -31 11 -19 4 -35 12 -34 19 0 7 10 64 23
127 l23 115 20 -45 c12 -25 36 -80 53 -124 45 -109 77 -137 179 -162 48 -12
80 -16 77 -10 -2 6 -21 52 -41 101 -52 128 -74 164 -118 189 l-38 23 74 -5
c90 -5 131 12 153 65 18 43 7 87 -34 126 -48 46 -110 65 -370 112 -140 25
-210 32 -139 13z m294 -68 c18 -10 40 -31 49 -45 32 -49 12 -149 -33 -166 -25
-9 -110 -1 -118 12 -3 4 4 54 15 111 11 57 20 104 20 106 0 9 40 -1 67 -18z"/>
<path d="M2780 3469 c-131 -35 -365 -110 -375 -121 -7 -8 -4 -9 8 -4 67 23 57
39 140 -217 43 -129 77 -237 77 -241 0 -3 -4 -6 -9 -6 -17 0 -64 -20 -59 -25
3 -3 38 7 79 21 41 14 142 45 225 69 83 24 170 53 193 65 51 26 81 72 81 125
0 74 -53 116 -146 116 l-55 0 39 43 c67 73 64 143 -8 178 -45 23 -96 22 -190
-3z m33 -49 c31 -25 51 -80 42 -120 -7 -31 -50 -71 -97 -89 l-27 -10 -26 84
c-38 127 -40 142 -19 148 47 12 102 6 127 -13z m62 -224 c67 -28 95 -118 56
-182 -20 -32 -108 -82 -121 -67 -13 15 -71 225 -66 238 9 25 83 31 131 11z"/>
<path d="M6415 3437 c-40 -19 -60 -59 -60 -122 1 -61 16 -89 95 -172 31 -32
72 -78 93 -102 71 -85 39 -148 -60 -120 -91 25 -153 112 -153 216 0 71 -15 49
-33 -49 -23 -122 -23 -120 13 -100 29 17 29 16 62 -15 126 -122 342 -92 365
51 12 74 -2 101 -113 217 -104 109 -120 139 -92 167 22 22 82 14 131 -18 51
-35 82 -79 98 -146 6 -24 14 -44 18 -44 6 0 42 152 37 157 -1 2 -16 -3 -33 -9
-29 -11 -35 -9 -75 23 -24 20 -63 43 -88 53 -60 24 -167 30 -205 13z"/>
</g>
</svg>
