<?xml version="1.0" standalone="no"?>
<!DOCTYPE svg PUBLIC "-//W3C//DTD SVG 20010904//EN"
 "http://www.w3.org/TR/2001/REC-SVG-20010904/DTD/svg10.dtd">
<svg version="1.0" xmlns="http://www.w3.org/2000/svg"
 width="800.000000pt" height="800.000000pt" viewBox="0 0 800.000000 800.000000"
 preserveAspectRatio="xMidYMid meet">

<g transform="translate(0.000000,800.000000) scale(0.100000,-0.100000)"
fill="#000000" stroke="none">
<path d="M2011 5994 l-1984 -1984 1989 -1985 c1094 -1092 1991 -1985 1994
-1985 2 0 897 894 1989 1986 l1984 1986 -1984 1984 c-1091 1091 -1988 1984
-1994 1983 -5 0 -903 -893 -1994 -1985z m3839 -3829 l-1845 -1845 -1845 1845
-1845 1845 1845 1845 1845 1845 1845 -1845 1845 -1845 -1845 -1845z"/>
<path d="M2285 5730 l-1720 -1720 1720 -1720 1720 -1720 1720 1720 1720 1720
-1720 1720 -1720 1720 -1720 -1720z m3374 -74 l1643 -1643 -1646 -1647 c-905
-905 -1648 -1646 -1652 -1646 -4 0 -746 741 -1648 1646 l-1641 1645 1645 1645
c905 904 1647 1644 1650 1644 3 0 745 -740 1649 -1644z"/>
<path d="M3855 5674 c-16 -2 -70 -9 -120 -15 -202 -24 -433 -92 -605 -178
-352 -174 -569 -446 -570 -714 0 -72 15 -103 82 -161 29 -25 46 -46 38 -46 -9
0 -32 -14 -53 -31 -36 -29 -37 -33 -37 -96 0 -50 -5 -71 -20 -90 -30 -38 -39
-88 -36 -189 4 -98 26 -162 72 -205 l23 -22 -87 -61 c-159 -112 -307 -281
-289 -329 8 -22 31 -21 109 3 88 28 109 26 130 -10 17 -30 17 -30 -7 -30 -14
0 -25 -2 -25 -5 0 -3 17 -31 38 -62 51 -77 58 -90 82 -158 77 -223 397 -423
805 -504 257 -51 743 -68 1030 -36 466 52 811 200 995 428 85 105 111 165 135
310 l6 39 119 -7 c136 -9 170 -3 170 25 0 34 -205 189 -392 295 l-66 38 31 21
c18 12 36 31 41 42 5 11 19 25 30 30 66 30 96 232 50 343 -10 24 -11 38 -4 45
5 5 10 37 10 69 0 55 -3 62 -35 93 -20 18 -54 39 -76 45 l-40 12 51 45 c64 56
80 87 80 156 0 78 -17 150 -56 234 -150 327 -555 574 -1079 657 -95 15 -463
28 -530 19z m416 -54 c484 -49 907 -259 1096 -543 45 -68 103 -210 103 -254 0
-37 -36 -51 -155 -58 -60 -4 -119 -12 -130 -18 -11 -5 -41 -29 -67 -53 -58
-54 -87 -62 -138 -39 -36 16 -42 16 -71 3 -22 -11 -41 -13 -67 -7 -39 9 -53 3
-148 -55 -64 -41 -133 -46 -203 -16 -45 20 -61 22 -119 15 -37 -4 -89 -9 -117
-10 -27 -1 -84 -6 -125 -10 -60 -6 -82 -4 -106 8 -27 14 -32 13 -64 -4 -19
-10 -52 -18 -73 -19 -22 0 -64 -7 -94 -16 -84 -24 -153 -1 -153 51 0 18 -5 20
-35 17 -51 -6 -98 5 -140 34 l-38 25 -68 -22 c-73 -24 -99 -18 -99 22 0 23 2
23 -60 -1 -60 -24 -87 -16 -159 44 -49 41 -52 42 -180 55 -51 6 -99 15 -107
22 -8 6 -21 9 -30 5 -27 -10 -54 12 -54 44 0 17 -9 37 -20 48 l-21 19 21 54
c66 177 280 376 526 490 176 82 417 147 619 168 118 12 358 13 476 1z m-1495
-1094 c90 -43 355 -118 494 -138 57 -9 -143 -20 -245 -14 -169 10 -295 44
-347 94 -40 37 -35 7 5 -33 60 -60 223 -95 435 -95 107 0 156 5 280 25 26 5
42 4 42 -2 0 -37 -438 -51 -588 -20 -155 33 -242 78 -242 126 0 23 72 81 100
81 9 0 38 -11 66 -24z m2664 -4 c32 -16 61 -39 70 -56 15 -27 14 -28 -23 -60
-75 -66 -239 -100 -482 -99 -122 0 -183 5 -259 21 -54 12 -101 23 -104 26 -15
16 13 16 70 2 113 -28 229 -39 363 -33 215 9 356 52 391 118 20 39 10 50 -15
17 -26 -33 -103 -65 -199 -85 -130 -25 -494 -20 -477 8 4 5 18 9 32 9 76 0
426 97 503 140 47 26 65 25 130 -8z m-1729 -251 c204 -88 637 -75 782 23 30
21 38 22 48 10 9 -11 0 -19 -52 -44 -88 -41 -220 -60 -410 -60 -219 0 -367 29
-468 90 -32 20 -32 22 -16 40 17 19 18 18 41 -9 13 -16 47 -38 75 -50z m789
70 c0 -15 -100 -60 -160 -71 -172 -34 -399 -31 -549 6 -59 15 -141 48 -141 58
0 2 132 1 293 -1 160 -2 342 0 402 5 156 13 155 13 155 3z m-1836 -32 c34 -20
34 -20 20 -54 -8 -19 -14 -45 -14 -57 0 -22 0 -22 -25 5 -29 31 -40 35 -31 10
6 -14 4 -14 -14 2 -23 21 -21 51 6 93 18 27 15 27 58 1z m886 -33 c0 -24 -2
-24 -32 -14 l-33 12 30 12 c17 7 31 13 33 14 1 0 2 -11 2 -24z m1944 2 c13
-49 7 -63 -39 -90 l-45 -28 0 53 c0 49 3 53 33 68 44 22 44 22 51 -3z m-2706
-44 c5 -39 26 -61 95 -95 76 -39 144 -55 307 -74 187 -21 380 -17 508 11 35 7
26 32 -20 55 -35 18 -57 21 -142 20 -72 -1 -124 4 -180 19 -73 19 -134 46
-124 56 3 2 32 8 65 12 52 7 62 6 71 -9 15 -23 96 -41 178 -38 56 2 81 -3 129
-24 33 -14 91 -32 129 -39 39 -8 71 -19 74 -26 8 -24 -192 -59 -393 -68 -255
-12 -530 24 -666 87 -75 35 -109 67 -109 105 0 58 72 66 78 8z m1907 12 l40
-12 -67 -17 c-37 -9 -77 -17 -88 -17 -21 0 -21 0 2 29 26 33 49 37 113 17z
m654 -22 c-30 -32 -117 -77 -190 -98 -226 -64 -631 -79 -889 -34 l-65 12 45 7
c25 4 70 2 100 -4 30 -6 147 -11 260 -11 295 0 482 31 597 100 39 24 109 47
157 53 5 0 -1 -11 -15 -25z m-2189 0 c0 -9 -68 -34 -94 -34 -27 0 -41 14 -31
30 6 10 125 14 125 4z m1720 -22 c22 -18 21 -42 -1 -42 -12 0 -49 37 -49 50 0
16 26 12 50 -8z m-120 -67 c-12 -14 -40 -10 -40 6 0 5 10 19 23 32 l22 22 3
-23 c2 -13 -2 -29 -8 -37z m-1564 10 c-19 -29 -49 -34 -44 -8 3 17 48 46 57
38 2 -2 -4 -16 -13 -30z m1454 25 c0 -18 -39 -50 -55 -44 -23 9 -18 20 18 38
38 19 37 18 37 6z m853 -47 c-8 -78 -26 -121 -56 -128 -13 -4 -30 -20 -38 -37
-10 -21 -30 -37 -73 -56 -42 -19 -61 -23 -64 -14 -4 14 -32 16 -32 2 0 -5 7
-13 16 -18 13 -7 10 -13 -21 -30 -20 -12 -44 -22 -53 -22 -9 0 -43 -13 -74
-29 -31 -16 -59 -27 -61 -25 -2 3 -28 -4 -56 -16 -28 -11 -64 -20 -79 -20 -15
0 -54 -8 -87 -18 -33 -10 -66 -17 -73 -14 -6 2 -12 -3 -12 -12 0 -19 -11 -21
-28 -4 -9 9 -15 9 -24 0 -7 -7 -30 -12 -53 -12 -22 0 -56 -4 -75 -9 -36 -10
-294 -23 -502 -27 -65 -1 -125 -5 -135 -8 -9 -4 -40 1 -69 10 -41 13 -62 14
-98 6 -36 -7 -58 -6 -94 5 -26 7 -63 13 -82 11 -20 -1 -42 2 -50 7 -7 4 -56
10 -108 11 -53 2 -100 8 -106 14 -5 5 -23 10 -39 10 -16 0 -44 9 -61 19 -17
11 -45 20 -61 19 -30 0 -145 32 -200 56 -16 8 -55 24 -85 36 -30 12 -62 28
-71 36 -8 8 -20 14 -26 14 -5 0 -20 11 -32 24 -13 14 -36 30 -51 36 -59 24
-128 168 -101 209 7 11 11 9 20 -8 7 -12 16 -19 20 -17 4 3 32 -18 62 -46 65
-61 146 -102 252 -125 42 -10 77 -23 77 -29 0 -17 51 -28 61 -13 6 10 16 10
51 -1 54 -17 71 -20 133 -27 28 -3 59 -13 70 -22 30 -26 52 -32 65 -15 16 19
36 18 44 -2 4 -10 13 -13 25 -9 11 3 22 1 26 -5 10 -16 28 -12 21 6 -4 10 -2
13 6 8 7 -5 26 -7 42 -6 25 2 27 0 16 -13 -11 -13 -7 -15 34 -15 27 0 46 5 46
11 0 7 10 9 25 5 14 -3 37 -9 52 -12 21 -6 25 -4 20 9 -4 11 -2 14 8 11 8 -3
13 -11 12 -17 -1 -6 8 -13 21 -15 15 -2 22 2 22 12 0 22 18 20 59 -5 33 -20
91 -19 91 2 0 20 31 20 60 -1 37 -26 90 -20 90 11 0 23 0 23 50 3 23 -9 43
-14 46 -11 4 3 17 1 31 -4 17 -6 30 -6 39 2 9 7 22 8 41 1 20 -6 34 -5 48 4
14 8 35 10 69 5 38 -7 56 -4 88 11 39 19 76 17 90 -5 4 -7 11 -7 21 2 9 7 26
9 41 5 19 -4 28 -2 32 10 5 13 14 15 41 10 25 -5 38 -2 45 7 7 11 11 11 15 2
7 -18 23 -16 23 2 0 17 16 20 25 5 9 -15 55 -12 61 4 3 8 12 12 20 9 8 -3 21
3 28 13 11 14 17 16 28 7 19 -16 69 -9 80 11 5 9 18 16 29 16 11 0 22 7 25 15
5 11 10 12 26 4 14 -8 28 -7 48 1 16 7 33 9 38 6 5 -3 19 8 31 24 12 17 27 29
33 27 7 -1 12 7 13 17 0 12 8 20 21 21 12 1 33 15 47 30 22 26 27 28 42 15 14
-12 18 -12 26 1 5 8 9 20 9 27 0 11 30 60 37 62 1 0 -1 -26 -4 -57z m-2197
-32 c-11 -17 -24 -13 -36 9 -17 31 -1 46 22 22 11 -11 17 -25 14 -31z m124 14
c16 -19 -4 -29 -30 -15 -26 14 -27 40 0 33 10 -3 24 -11 30 -18z m710 -120
c52 -13 139 -29 193 -36 57 -7 94 -16 89 -21 -6 -6 -26 -5 -49 1 -46 12 -95
10 -115 -6 -13 -11 -48 -10 -171 3 -40 4 -62 2 -73 -7 -25 -20 -44 -20 -96 3
-41 18 -53 19 -72 8 -17 -9 -29 -9 -42 -2 -15 9 -11 12 26 22 70 17 133 39
160 55 14 8 32 12 40 9 8 -3 58 -16 110 -29z m-1450 -100 c0 -3 -19 -24 -41
-45 -42 -39 -42 -40 -35 -96 3 -31 11 -65 17 -75 8 -17 6 -19 -18 -19 -15 0
-71 -12 -123 -25 -120 -32 -170 -40 -170 -28 0 17 69 91 133 141 128 102 237
169 237 147z m2750 -111 c96 -56 310 -202 310 -212 0 -7 -308 7 -375 17 l-50
7 41 8 c97 18 139 84 85 133 -23 22 -96 60 -144 77 -10 3 -15 10 -12 16 13 21
53 8 145 -46z m-2607 20 c11 -4 14 -15 10 -39 -5 -29 -2 -35 23 -49 l29 -16
-30 7 c-47 10 -90 30 -105 49 -13 14 -11 19 9 35 24 20 39 23 64 13z m2357
-28 c0 -2 -7 -7 -16 -10 -8 -3 -12 -2 -9 4 6 10 25 14 25 6z m-2247 -20 c12
-8 39 -17 61 -21 21 -3 36 -8 33 -11 -7 -8 -104 17 -123 31 -25 19 -1 20 29 1z
m2187 -11 c-33 -19 -50 -18 -26 0 11 8 27 15 35 15 10 -1 7 -6 -9 -15z m-60
-20 c0 -6 -128 -45 -147 -45 -8 0 -11 5 -8 10 3 6 19 10 34 10 16 0 42 7 57
15 28 14 64 20 64 10z m300 -19 c0 -14 -29 -26 -95 -41 -35 -8 -29 0 23 31 43
26 72 30 72 10z m-2674 -101 c-23 -17 -36 -19 -36 -6 0 5 10 12 23 14 12 2 24
5 27 5 3 1 -4 -5 -14 -13z m984 -4 c14 -4 45 -3 70 1 33 6 62 4 107 -8 35 -9
70 -13 80 -9 21 9 123 13 123 4 0 -7 -163 -46 -245 -59 -33 -6 -91 -10 -130
-10 -121 0 -142 17 -82 64 34 27 38 28 77 17z m-860 -11 c12 -8 12 -10 -5 -9
-11 0 -29 4 -40 9 -18 8 -18 9 5 9 14 0 32 -4 40 -9z m654 -15 c-14 -22 -15
-32 -6 -64 18 -57 44 -66 191 -65 133 1 219 15 397 65 84 23 107 26 135 18 19
-6 97 -13 174 -16 109 -5 134 -8 115 -16 -182 -74 -278 -135 -405 -258 -49
-47 -100 -91 -112 -98 -61 -32 -117 -2 -273 144 -134 125 -217 192 -308 248
l-72 45 77 9 c43 6 84 11 91 12 9 1 8 -6 -4 -24z m-934 1 c0 -2 -7 -6 -15 -10
-8 -3 -15 -1 -15 4 0 6 7 10 15 10 8 0 15 -2 15 -4z m190 -13 c0 -10 -3 -28
-6 -40 -5 -19 -11 -22 -33 -16 -24 6 -40 19 -41 34 0 5 57 35 73 38 4 0 7 -7
7 -16z m181 -3 c22 -13 25 -30 4 -30 -8 0 -19 9 -25 20 -12 23 -7 25 21 10z
m175 -1 c9 -14 -9 -30 -32 -29 -10 1 -34 2 -51 2 -18 0 -33 5 -33 10 0 23 103
38 116 17z m194 -26 c53 -25 69 -38 56 -41 -11 -2 -23 3 -28 12 -11 20 -37 21
-44 1 -10 -24 23 -65 51 -65 28 0 31 -16 11 -43 -14 -18 -16 -18 -43 -1 -15
10 -35 26 -44 37 -18 22 -112 33 -153 17 -24 -9 -26 -8 -26 20 0 17 5 30 12
30 19 0 48 31 48 52 0 32 74 24 160 -19z m-495 7 c0 -7 -10 -16 -22 -21 -21
-7 -21 -6 -11 17 12 25 33 28 33 4z m2371 -5 c37 -19 48 -19 64 0 14 17 44 12
71 -12 9 -7 20 -13 25 -12 24 4 26 -3 4 -18 -16 -12 -45 -17 -90 -18 -56 -1
-67 2 -83 22 -12 15 -29 23 -48 23 -16 0 -29 5 -29 11 0 7 10 9 25 5 14 -4 25
-2 25 4 0 13 2 13 36 -5z m-2292 -4 c7 -11 -14 -20 -31 -13 -7 2 -10 8 -7 13
7 12 31 12 38 0z m2055 -26 c7 -19 20 -39 30 -45 19 -10 36 -54 32 -80 -4 -20
-21 -30 -53 -30 -31 0 -38 15 -43 92 -1 23 -3 48 -4 54 0 7 -11 15 -23 18 -22
7 -22 7 -3 16 37 16 51 11 64 -25z m111 27 c0 -5 -13 -18 -29 -30 l-30 -22
-15 22 c-24 33 -20 38 29 38 25 0 45 -4 45 -8z m350 -2 c0 -5 -2 -10 -4 -10
-3 0 -8 5 -11 10 -3 6 -1 10 4 10 6 0 11 -4 11 -10z m75 0 c17 -8 16 -8 -7 -7
-16 1 -28 5 -28 9 0 10 9 9 35 -2z m-605 -54 c0 -2 -21 -7 -46 -11 -31 -4 -54
-15 -70 -32 l-24 -26 -23 21 c-23 22 -68 42 -93 42 -8 0 -26 -12 -39 -26 -22
-23 -26 -24 -50 -11 -26 13 -25 14 62 39 79 24 163 43 218 50 15 3 65 -33 65
-46z m-1937 5 c5 -1 7 -16 5 -33 -2 -24 -8 -33 -20 -32 -13 1 -18 -6 -18 -27
0 -17 -5 -29 -12 -29 -34 1 -60 15 -74 42 -8 16 -29 35 -46 42 l-30 13 23 17
c22 15 70 17 172 7z m2507 6 c0 -2 -10 -12 -22 -23 l-23 -19 19 23 c18 21 26
27 26 19z m-2880 -27 c0 -11 -2 -20 -5 -20 -2 0 -9 9 -15 20 -9 16 -8 20 5 20
8 0 15 -9 15 -20z m158 -3 c4 -18 -14 -22 -37 -8 -7 5 -10 14 -6 20 10 17 39
9 43 -12z m2332 13 c0 -5 -4 -10 -10 -10 -5 0 -10 5 -10 10 0 6 5 10 10 10 6
0 10 -4 10 -10z m100 -22 c0 -16 -20 -7 -30 12 -10 19 -10 20 9 8 12 -7 21
-16 21 -20z m-1594 -87 c20 -18 35 -33 33 -35 -8 -4 -60 -26 -64 -26 -3 0 -5
7 -5 16 0 36 -34 86 -69 102 -47 22 -48 22 -31 32 14 8 56 -19 136 -89z m1736
70 c9 -15 15 -17 25 -9 23 18 14 -7 -9 -30 -49 -45 -141 -57 -173 -22 -22 24
-20 26 42 55 61 29 99 31 115 6z m-643 -2 c17 -6 35 -19 40 -28 8 -13 4 -16
-22 -17 -18 0 -39 -4 -48 -8 -19 -9 -33 17 -24 45 7 22 11 23 54 8z m211 7 c0
-3 -4 -8 -10 -11 -5 -3 -10 -1 -10 4 0 6 5 11 10 11 6 0 10 -2 10 -4z m230
-21 c-7 -8 -16 -15 -21 -15 -5 0 -1 8 9 18 20 22 31 19 12 -3z m-1920 10 c0
-19 -47 -65 -67 -65 -28 0 -30 19 -3 48 18 19 70 31 70 17z m60 -5 c0 -5 -4
-10 -10 -10 -5 0 -10 5 -10 10 0 6 5 10 10 10 6 0 10 -4 10 -10z m1268 -9 c17
-7 32 -16 32 -20 0 -4 -15 -5 -32 -3 -23 2 -44 -4 -70 -22 -37 -25 -38 -25
-49 -5 -6 12 -9 22 -7 24 10 9 84 44 88 41 3 -1 20 -8 38 -15z m326 -6 c11 -8
28 -13 38 -9 13 4 18 0 18 -15 0 -11 5 -23 10 -26 15 -9 12 -25 -5 -25 -8 0
-15 7 -15 15 0 24 -29 30 -45 9 -14 -18 -14 -17 -15 8 0 15 -4 30 -10 33 -12
7 -13 25 -2 25 4 0 16 -7 26 -15z m-1769 -15 c7 -21 0 -40 -14 -40 -5 0 -26 7
-47 16 l-38 16 24 14 c37 20 68 17 75 -6z m402 -12 c18 -20 43 -84 43 -112 0
-4 -24 17 -53 48 -29 31 -59 56 -67 56 -11 1 -10 4 4 15 28 21 49 19 73 -7z
m-233 1 c24 4 82 -58 78 -82 -4 -21 -3 -21 -38 -2 -16 8 -44 15 -62 15 -38 0
-50 20 -33 56 7 16 15 22 24 17 6 -4 21 -6 31 -4z m1556 -9 c0 -5 -5 -10 -11
-10 -5 0 -7 5 -4 10 3 6 8 10 11 10 2 0 4 -4 4 -10z m-420 -47 c0 -7 -4 -13
-10 -13 -5 0 -10 12 -10 28 0 21 2 24 10 12 5 -8 10 -21 10 -27z m267 23 c16
10 37 15 46 11 14 -5 15 -11 5 -39 -17 -50 -27 -59 -50 -47 -14 8 -31 6 -64
-7 -34 -13 -48 -14 -56 -6 -7 7 -29 12 -50 12 -21 0 -38 3 -38 8 1 28 50 52
106 52 23 0 37 6 41 16 6 16 7 16 18 0 12 -15 15 -15 42 0z m487 5 c3 -5 -1
-14 -9 -21 -13 -10 -15 -9 -15 9 0 21 14 28 24 12z m-1724 -15 c0 -3 -4 -8
-10 -11 -5 -3 -10 -1 -10 4 0 6 5 11 10 11 6 0 10 -2 10 -4z m904 -58 c-9 -14
-23 -8 -29 12 -10 32 6 46 21 19 7 -13 10 -27 8 -31z m459 30 c-24 -23 -40
-20 -30 7 4 8 17 15 29 15 l22 0 -21 -22z m-1698 -8 c3 -6 -1 -7 -9 -4 -18 7
-21 14 -7 14 6 0 13 -4 16 -10z m89 -6 c4 -9 4 -19 2 -22 -10 -9 -36 8 -36 23
0 20 26 19 34 -1z m1706 -37 c0 -5 -7 -6 -16 -3 -8 3 -24 2 -34 -4 -13 -7 -21
-6 -30 5 -10 12 -8 18 11 34 24 19 24 19 47 -1 12 -12 22 -26 22 -31z m-1443
8 c10 -32 9 -35 -9 -35 -52 0 -77 43 -35 60 33 13 33 13 44 -25z m2036 3 c-27
-48 -160 -179 -228 -225 -278 -186 -618 -263 -1165 -263 -623 0 -990 95 -1271
332 -25 21 -60 58 -78 83 -31 44 -31 44 -9 51 18 5 29 -1 55 -31 18 -21 36
-35 39 -32 4 3 15 2 25 -4 13 -6 25 -6 39 3 15 10 24 10 39 1 10 -6 29 -9 40
-6 16 4 31 -3 56 -27 28 -27 38 -31 65 -25 28 6 36 3 55 -21 23 -29 24 -29 53
-11 40 23 54 22 87 -7 27 -23 28 -23 46 -5 11 11 23 19 28 19 16 0 40 -30 35
-43 -3 -8 14 -13 58 -14 35 -1 97 -11 138 -23 41 -11 89 -21 107 -20 17 0 34
-4 38 -9 4 -7 15 -7 33 0 15 6 65 13 112 16 74 5 92 3 139 -17 48 -21 57 -22
85 -10 32 14 97 16 156 5 27 -5 54 1 113 24 93 37 151 40 184 10 22 -21 24
-22 78 -6 31 9 63 13 71 10 7 -3 34 7 59 22 40 23 50 25 77 16 48 -17 77 -13
102 14 21 22 27 24 72 16 27 -5 57 -12 67 -16 14 -6 17 -2 17 28 0 28 5 36 28
45 52 21 115 24 160 9 42 -15 42 -14 62 13 11 15 33 33 50 40 16 7 30 16 30
20 0 10 56 70 65 70 3 0 -2 -14 -12 -32z m-2198 2 c4 -6 -12 -10 -40 -10 -28
0 -44 4 -40 10 3 6 21 10 40 10 19 0 37 -4 40 -10z m224 -35 c0 -5 -6 -1 -14
9 -8 11 -15 24 -15 30 0 5 7 1 15 -10 8 -10 14 -23 14 -29z m789 4 c27 -46 22
-62 -9 -33 -27 24 -42 52 -34 64 11 17 19 11 43 -31z m-612 23 c6 -4 13 -17
16 -29 6 -21 3 -23 -36 -23 -45 0 -104 16 -121 32 -7 7 -3 8 10 5 11 -4 31 0
45 8 27 16 69 19 86 7z m974 -22 c0 -5 -6 -10 -12 -10 -7 0 -24 -3 -38 -6 -22
-4 -21 -3 5 10 37 18 45 19 45 6z m120 0 c0 -13 -20 -13 -40 0 -12 8 -9 10 13
10 15 0 27 -4 27 -10z m-357 -21 c4 -15 -1 -23 -20 -30 -20 -7 -28 -5 -43 13
-18 23 -18 23 8 29 45 11 49 10 55 -12z m115 3 c3 -10 -7 -12 -39 -10 -24 2
-44 9 -47 16 -3 10 7 12 39 10 24 -2 44 -9 47 -16z"/>
</g>
</svg>
