<?xml version="1.0" encoding="UTF-8" standalone="no"?>
<svg
   xmlns:dc="http://purl.org/dc/elements/1.1/"
   xmlns:cc="http://creativecommons.org/ns#"
   xmlns:rdf="http://www.w3.org/1999/02/22-rdf-syntax-ns#"
   xmlns:svg="http://www.w3.org/2000/svg"
   xmlns="http://www.w3.org/2000/svg"
   viewBox="0 0 628.22668 608.59998"
   height="608.59998"
   width="628.22668"
   xml:space="preserve"
   id="svg2"
   version="1.1"><metadata
     id="metadata8"><rdf:RDF><cc:Work
         rdf:about=""><dc:format>image/svg+xml</dc:format><dc:type
           rdf:resource="http://purl.org/dc/dcmitype/StillImage" /></cc:Work></rdf:RDF></metadata><defs
     id="defs6" /><g
     transform="matrix(1.3333333,0,0,-1.3333333,0,608.6)"
     id="g10"><g
       transform="scale(0.1)"
       id="g12"><path
         id="path14"
         style="fill:#100f0d;fill-opacity:1;fill-rule:nonzero;stroke:none"
         d="M 3071.12,2185.73 C 2940.1,2034.25 2699.04,1957.4 2354.97,1957.4 c -477.64,0 -628.48,126.53 -700.99,187.41 -24.87,20.9 -43.73,46.03 -57.67,73.28 2.3,-1.41 4.61,-2.88 6.71,-4.67 0.9,-0.77 1.67,-1.73 2.56,-2.5 7.48,5.69 18.86,7.55 28.26,0 10.3,-8.18 16.69,-18.99 21.94,-30.37 8.82,4.16 20.65,3.33 27.1,-6.59 0.39,-0.7 0.9,-1.4 1.35,-2.1 0.83,0 1.66,0 2.62,0.06 1.28,1.85 2.5,3.84 3.77,5.76 8.44,13.36 32.42,11.31 37.67,-3.21 0.63,0.26 1.21,0.52 1.85,0.65 0.25,0.06 0.44,0.06 0.7,0.13 0.32,0.12 0.58,0.38 0.96,0.51 3.26,1.72 8.44,2.94 12.28,2.94 23.14,0 28.13,-16.88 39.19,-29.61 6.27,0.9 12.86,-0.51 17.46,-4.73 3.51,4.47 8.82,7.42 16.11,7.42 11.26,0 20.91,-8.44 20.78,-18.54 0,-0.96 -0.13,-1.99 -0.13,-3.01 5.82,-1.03 11.71,-2.69 17.4,-4.16 0.38,-0.06 0.77,-0.25 1.15,-0.32 3.39,6.71 10.93,10.17 18.6,10.55 11.19,10.1 33,5.06 35.88,-8.18 5.94,-1.92 11.25,-6.14 13.74,-12.08 1.03,-2.37 3.46,-3.97 6.14,-4.42 0.13,3.26 0.64,6.65 1.6,9.98 6.78,23.02 46.93,13.24 40.09,-9.85 -0.25,-1.09 -0.44,-1.53 -0.64,-1.79 0.13,-0.19 0.13,-0.64 0.13,-1.15 0.07,-0.77 0.07,-1.21 0,-1.6 0.13,-0.19 0.19,-0.44 0.39,-1.02 0.19,-0.71 0.38,-1.09 0.44,-1.41 0.19,-0.19 0.39,-0.45 0.77,-0.9 0.19,-0.32 0.38,-0.57 0.57,-0.76 0.7,-0.51 3.46,-2.37 2.75,-2.11 0.33,-0.13 0.52,-0.26 0.71,-0.32 0.7,-0.07 1.47,-0.19 2.11,-0.39 4.6,13.5 30.75,16.95 39.58,1.41 28.19,2.69 54.92,-4.73 81.2,-14.77 7.29,0.58 14.64,-1.92 18.67,-7.54 1.09,-0.45 2.24,-0.9 3.33,-1.35 0.83,0 1.66,0.07 2.56,0.07 8.88,9.4 26.08,5.62 32.67,-3.78 0.9,-1.46 1.92,-2.62 3.14,-3.51 2.48,3 6.06,5.31 10.86,6.46 39.45,9.27 101.6,21.8 138.56,-0.58 15.1,-9.14 26.48,-16.69 44.51,-6.58 6.84,3.77 14.26,8.69 22.18,10.54 20.59,4.86 35.3,1.03 53.97,-6.77 32.74,-13.56 89.46,30.12 127.12,31.65 27.3,1.22 45.27,-8.06 54.41,-26.15 23.92,5.05 46.68,21.61 70.65,15.72 6.52,-1.53 31.79,7.17 37.99,16.05 5.36,7.87 19.24,12.8 28.45,6.59 16.05,-10.61 39.13,-8.7 59.21,-3.13 -1.22,11.96 9.14,24.17 25.26,19.75 20.46,-5.5 43.22,-4.21 56.27,-14.06 2.56,9.78 -1.92,26.22 1.46,31.52 5.63,8.57 17.72,14.26 28.46,16.11 24.74,4.1 62.53,9.47 85.61,-2.49 4.04,-2.11 8.06,-6.33 10.43,-9.84 0.32,-0.58 0.57,-0.9 0.83,-1.41 0.58,3.26 2.24,7.73 6.08,13.74 9.39,14.33 18.03,21.55 35.23,28.33 21.41,8.44 17.39,25.45 32.22,38.69 5.24,4.6 13.3,7.41 22.32,9.27 -9.91,-18.35 -23.28,-37.6 -41.43,-58.51 z m -1550.77,158 c 3.26,0.32 6.45,0.7 9.52,0.7 4.29,0 7.8,-0.7 10.75,-1.98 0.58,-11.32 1.66,-23.02 3.45,-34.85 -9.14,11.06 -16.5,23.21 -23.72,36.13 z m 3.7,41.62 c 0.07,3.39 0,6.53 -0.19,9.73 0.97,0.06 1.92,0.19 2.88,0.25 8.19,0.51 15.67,-0.51 23.08,-3 -8.69,-0.45 -16.62,-4.48 -22.05,-11.38 -1.29,1.46 -2.5,2.94 -3.72,4.4 z m 89.97,184.6 h 0.06 c 2.63,-1.15 5.31,-1.72 8.25,-1.59 1.09,-0.71 3.26,-2.56 7.29,-6.79 -33.25,-19.17 -51.47,-39.7 -49.04,-59.52 0.06,-0.32 0.06,-0.45 0.13,-0.64 h -0.07 l 4.48,-37.22 c 1.02,-8.5 5.75,-16.43 13.75,-23.72 -51.61,-7.48 -105.57,-20.27 -161.71,-38.36 -11.83,-1.09 -17.2,2.49 -17.27,9.66 18.1,25.76 54.17,64.25 113.18,105.05 18.1,12.4 50.51,36.57 80.95,53.13 z m -28.01,57.74 -4.6,6.14 c -3.9,6.27 -9.34,16.31 -12.09,22.51 l 0.13,3.77 c 0.07,4.67 -1.72,10.81 -4.79,21.23 -1.41,4.47 -3.58,11.83 -4.67,16.63 6.59,6.07 6.52,16.1 5.18,27.42 1.47,-2.81 2.11,-3.83 1.02,-1.91 14.01,-20.85 27.5,-39.33 22.06,-27.05 5.31,-4.16 -9.08,23.6 19.19,-12.6 6.84,-6.07 7.98,-3.06 10.87,-1.85 9.84,-26.22 43.16,-43.8 65.41,-54.87 32.54,-15.91 68.29,-24.48 103.84,-31.19 4.15,-0.84 8.31,-1.48 12.47,-2.24 1.21,-0.9 2.55,-2.11 3.83,-3.26 -0.7,-0.2 -1.34,-0.46 -1.98,-1.09 -1.66,-1.54 -1.79,-3.58 -0.77,-5.57 0.52,-0.95 1.47,-1.78 2.37,-2.55 3.26,-2.95 7.61,-0.71 8.63,2.36 3.78,-3.26 7.42,-6.2 10.62,-8.44 4.54,-3.13 7.99,-4.54 9.14,-2.17 1.85,0.45 3.39,1.85 3.39,4.22 v 3.64 c 0,3.01 -2.82,4.48 -5.5,4.42 -0.39,1.15 -0.77,2.17 -1.28,3.45 6.39,-4.35 9.27,-3.26 11.64,-1.21 4.73,-0.65 9.46,-1.09 14.26,-1.67 -0.2,-1.03 -0.39,-2.05 -0.39,-3.2 -0.06,-5.56 8.95,-5.81 10.17,-0.89 21.8,-17.46 23.59,-3.46 40.86,-12.6 15.79,-10.36 21.29,-4.34 32.16,-6.33 9.91,-0.7 17.2,3.14 32.8,-5.5 5.88,-7.29 10.62,-13.11 14.71,-17.71 6.39,1.73 13.43,0.77 18.99,-3.45 -0.58,6.33 -0.96,12.47 4.29,9.85 5.43,4.92 9.01,12.91 22.89,5.24 -1.29,-0.71 -2.18,-1.86 -2.05,-3.71 0.25,-6.14 4.41,-9.85 11.38,-10.17 3.64,-0.06 5.31,2.43 4.99,4.99 5.94,-2.17 9.46,-0.58 12.91,1.15 -1.4,-1.02 -2.43,-2.56 -2.05,-4.6 0.52,-3.07 3.08,-5.43 5.44,-7.61 4.73,-4.16 12.15,2.37 7.42,6.65 -1.21,1.02 -2.56,1.85 -2.81,3.45 -0.58,2.88 -3.26,3.71 -5.7,3.2 3.52,1.53 7.55,2.36 14.39,-1.28 20.14,-13.62 14.26,13.1 38.94,-6.9 0.9,-1.09 1.73,-1.99 2.56,-2.94 -0.38,0.12 -0.71,0.31 -1.08,0.31 h -8.39 c -6.71,0 -6.71,-9.27 0,-9.27 h 8.39 c 3.45,0 5.04,2.43 4.98,4.73 0.89,-0.89 1.79,-1.98 2.68,-2.87 6.59,0.7 13.69,-0.32 19.19,-3.33 0.76,-0.51 1.4,-1.09 2.11,-1.54 0.57,6.66 0,15.1 5.63,14.01 11.89,-1.34 25.38,-4.74 38.17,-6.97 0.7,-0.9 1.53,-1.86 2.62,-2.69 4.73,-4.22 12.02,2.24 7.29,6.53 -1.41,1.28 -2.49,2.23 -2.56,4.09 -0.06,1.21 -0.71,2.17 -1.41,2.88 5.12,3.58 16.82,-2.75 28.58,-9.15 -1.66,0.13 -3.26,0.45 -4.85,1.03 -6.02,2.43 -11.38,-5.57 -5.25,-7.93 4.99,-2.05 9.78,-2.5 15.09,-2.5 5.25,-0.06 6.33,5.44 3.52,7.93 3.19,13.69 22.38,2.94 39.32,-4.09 4.67,-4.67 8.89,-8.51 12.67,-11.89 5.18,-0.64 9.07,1.72 13.11,4.41 5.62,3.83 11.7,3.9 16.87,1.98 -0.06,0.51 -0.06,1.09 -0.13,1.6 3.59,15.21 10.17,26.02 40.03,1.4 0.39,3.97 3.46,3.91 7.87,1.8 -1.09,-0.45 -1.92,-1.03 -2.5,-1.92 -4.03,-1.98 -3.26,-8.7 2.5,-8.64 4.47,0.07 7.03,2.24 7.16,6.2 2.11,-1.46 4.28,-3.06 6.46,-4.66 3.13,2.18 6.59,3.96 10.42,5.31 3.77,1.79 8.06,2.81 12.27,3.07 -0.25,0.51 -0.31,0.83 -0.57,1.34 -8.25,36.06 28.39,3.19 46.29,-0.45 0.33,1.09 0.77,1.92 1.28,2.49 0.83,0.32 1.41,0.9 1.85,1.48 10.24,5.11 37.86,-16.56 40.61,0.38 9.59,9.08 43.29,-18.54 46.1,1.34 0.06,0.26 0.32,0.38 0.45,0.58 3.65,-1.98 8.31,1.6 7.35,5.24 11.19,1.15 30.06,-9.46 37.15,-1.85 4.54,-1.28 8.31,-1.41 11.77,-0.96 -1.54,-3.33 1.14,-8 5.81,-6.46 6.79,2.24 11.83,6.01 16.88,10.49 0.71,0.57 1.09,1.21 1.35,1.91 0.32,0 0.51,0.07 0.83,0.07 18.28,-7.74 13.68,20.01 38.18,3.01 4.47,-0.78 8.95,-1.54 13.23,-1.92 0.64,-4.67 3.13,-7.93 9.33,-8.13 5.25,-0.19 6.27,5.31 3.33,7.81 4.86,0.57 9.14,1.98 12.47,5.04 20.85,-18.15 22.7,-7.47 26.47,0.51 0.25,0.39 0.64,0.65 0.96,0.9 1.15,1.09 1.53,2.24 1.47,3.33 1.66,1.79 3.77,2.87 7.03,1.98 11.83,2.56 36.83,-15.02 37.03,5.25 2.87,0.31 5.56,0.82 8.05,1.4 0.64,-3.77 2.69,-7.22 5.63,-10.11 4.6,-4.4 11.83,2.18 7.35,6.53 -1.02,1.09 -2.49,2.75 -2.62,4.15 -0.07,0.84 -0.51,1.54 -0.9,2.18 5.69,1.66 11.64,2.75 19.32,1.34 0.06,-0.06 0.06,-0.06 0.12,-0.12 -3,-2.37 -1.98,-8 3.33,-8 2.24,0.07 4.09,0.32 6.01,1.02 20.2,-12.97 18.48,8.25 27.05,13.69 29.92,-24.88 8.5,29.54 36.06,8.44 0.38,-0.26 0.57,-0.45 0.96,-0.58 -0.7,-1.47 -0.51,-3.19 1.08,-4.6 3.78,-3.2 7.49,-3.26 11.13,-0.26 0.57,0.07 1.08,0.2 1.73,0.26 3.58,0.57 7.41,0.13 11.12,-0.83 4.73,0.96 9.53,1.53 14.58,1.47 -0.76,2.94 -1.73,6.27 -3.13,10.04 1.47,0.44 2.81,0.96 4.22,1.54 3,1.21 3.19,3.89 1.92,5.81 10.04,1.47 23.14,-1.79 27.43,8.32 0.19,19.81 36.96,-16.57 35.99,4.92 1.28,-0.58 2.89,-1.09 4.93,-1.28 6.65,-0.52 6.58,8.76 0,9.27 -0.7,0 -1.41,0.64 -2.04,1.21 11.95,-0.25 38.93,-23.59 31.26,6.21 h 6.14 c 6.01,0 6.52,7.41 1.72,8.82 5.25,1.41 10.94,2.5 15.8,5.25 0.25,-0.26 0.45,-0.46 0.76,-0.58 2.24,-3.58 9.85,-2.88 9.79,2.17 -0.06,3.59 -2.11,5.69 -5.63,6.2 0.45,10.3 5.57,14.13 12.28,15.48 -0.77,-2.69 0.76,-6.01 4.8,-6.01 h 4.15 c 4.41,0 5.82,3.96 4.48,6.71 1.66,0 3.26,0 4.85,0 9.09,9.14 12.09,28.14 29.93,23.59 30.44,-23.97 13.05,25.01 26.02,25.71 10.43,4.48 14.01,17.84 17.85,28.07 0.19,0.06 0.44,0.25 0.7,0.39 0.83,-3.97 0.51,-6.53 0.06,-10.04 -0.44,-3.33 -0.96,-7.16 -0.83,-12.41 -4.16,-6.59 -3.84,-16.75 -3.65,-26.08 0.13,-5.89 0.32,-15.93 -1.21,-19.06 l -1.02,-2.18 -0.2,-2.36 c -0.89,-14.58 -5.81,-24.94 -16.69,-35.87 l -2.62,-2.69 -0.06,-0.32 h -3.13 c -3.84,0 -12.98,0 -19.12,-7.29 -4.8,-5.62 -5.31,-12.79 -4.86,-18.92 -6.72,-8.7 -12.08,-14.01 -20.46,-15.28 l -3.46,-0.46 -2.61,-2.23 c -2.37,-2.05 -6.53,-3.46 -11.01,-4.92 -6.58,-2.24 -14.96,-5.06 -21.8,-11.71 h -25.7 c 0.96,0.13 1.86,0.58 2.69,1.35 0.51,0.31 0.95,0.83 1.4,1.21 4.73,4.28 -2.56,10.75 -7.29,6.59 -0.51,-0.51 -1.02,-0.83 -1.41,-1.28 -3.51,-3.07 -0.51,-7.35 3.2,-7.87 h -4.6 c 5.95,-2.81 11.96,-5.69 17.97,-8.69 -4.36,-2.43 -8.45,-5.12 -12.09,-7.68 -5.37,-3.77 -10.55,-7.35 -16.18,-9.2 l -4.28,-1.54 -2.24,-3.9 c -1.09,-2.04 -7.22,-2.49 -12.66,-2.87 -9.08,-0.71 -21.74,-1.67 -29.99,-11.13 -13.68,0.64 -22.63,-6.97 -29.16,-12.47 -6.52,-5.76 -9.84,-8.05 -16.37,-6.9 l -1.15,0.19 c -15.34,1.41 -26.08,-4.48 -35.42,-9.4 -7.93,-4.22 -14.58,-7.68 -23.91,-7.04 l -0.96,0.07 -0.89,-0.07 c -13.88,-1.15 -25.07,-2.81 -35.11,-5.04 -11.06,-2.44 -20.65,-5.76 -29.35,-9.98 -1.41,0.25 -2.87,0.44 -4.28,0.44 -7.68,0 -12.99,-3.64 -16.57,-5.94 -1.97,-1.28 -3,-1.92 -3.57,-1.92 -0.32,0 -0.71,0.13 -1.35,0.25 l -15.47,4.29 0.45,-16.05 c 0,-0.7 0,-1.34 0,-1.72 -0.2,-0.19 -0.32,-0.19 -0.45,-0.26 -2.43,0.77 -6.39,2.62 -12.91,6.71 l -8.96,5.76 -6.71,-8.31 c -0.58,-0.52 -2.62,-1.09 -9.27,-1.09 l -4.29,0.06 c -3.58,0 -7.41,-0.19 -11.19,-0.77 -12.4,-1.98 -22.83,-3.19 -32.93,-3.64 l -1.98,-0.06 -1.79,-0.71 c -18.03,-7.16 -40.09,-9.34 -65.67,-6.84 l -2.24,0.2 -2.17,-0.65 c -0.07,0 -0.58,-0.06 -1.66,-0.06 -2.18,0 -4.93,0.38 -8,0.76 -3.64,0.52 -7.35,0.97 -11.25,0.97 -5.95,0 -10.93,-1.35 -14.83,-4.03 -1.73,0 -3.59,0.06 -5.37,0.12 -2.63,0.07 -5.38,0.19 -8,0.19 -5.11,0 -11.44,-0.31 -17.64,-2.04 -3.84,0.9 -7.68,1.41 -11.51,1.41 -6.08,0 -11.13,-1.22 -15.61,-2.24 -3.38,-0.77 -6.26,-1.47 -9.39,-1.6 l -4.29,-0.19 -1.47,-1.41 c -2.05,0.38 -5.37,1.41 -7.87,2.05 -5.24,1.73 -10.61,3.32 -15.98,3.32 -5.57,0 -10.23,-1.91 -13.62,-5.18 -4.48,-0.51 -8.05,-1.72 -11,-2.87 -3.06,-1.09 -4.98,-1.73 -6.9,-1.73 -2.31,0 -5.06,0.83 -8.51,2.56 l -2.94,1.4 -3.26,-0.12 c -5.63,-0.45 -11.57,-0.26 -17.58,0 -7.87,0.12 -15.86,0.19 -21.94,-0.26 l -3.64,-0.32 -2.81,-2.43 c -0.13,-0.06 -1.09,-0.76 -4.61,-0.76 -4.47,0 -10.42,1.27 -16.24,2.36 -10.99,2.17 -22.95,3.9 -31.39,1.09 l -6.33,-2.24 -1.28,-6.2 c -4.29,0.06 -11.64,2.56 -18.1,4.79 -6.71,2.31 -13.75,4.67 -20.33,5.5 -9.21,5.31 -17.2,7.86 -25.07,7.86 -6.84,0 -12.14,-1.97 -16.37,-3.51 -4.99,-1.92 -7.22,-2.56 -11.05,-1.47 l -5.18,1.28 -4.48,-2.88 c -7.42,-5.05 -20.4,-3.45 -37.73,4.03 l -1.09,0.45 -1.21,0.25 c -3.77,0.9 -7.74,1.8 -11.76,2.75 -9.72,2.43 -19.76,4.99 -28.78,4.99 -5.81,0 -10.8,-1.09 -15.09,-3.19 l -3.71,-1.92 c -2.55,1.4 -5.56,3.06 -7.67,4.4 -8.82,5.12 -16.37,9.6 -23.72,9.6 -4.48,0 -8.57,-1.79 -11.51,-4.93 -0.25,-0.19 -0.52,-0.57 -0.71,-0.76 -2.1,0.13 -4.34,0.32 -6.33,0.57 -11.12,0.9 -21.6,1.73 -33.31,5.25 l -1.66,0.44 c -2.05,0.26 -4.03,0.45 -6.07,0.45 -4.55,0 -8.38,-0.7 -11.65,-1.4 -2.55,-0.46 -4.72,-0.9 -6.83,-0.9 -3.07,0 -8.38,0.9 -18.81,8.57 l -4.4,3.26 -5.38,-1.28 c -8.24,-1.98 -20.58,0.64 -35.87,7.61 -12.59,11.44 -21.8,16.31 -30.37,16.31 -5.82,0 -9.85,-2.18 -12.6,-3.52 -0.32,-0.26 -0.7,-0.52 -1.08,-0.71 -0.26,0.07 -0.51,0.19 -0.89,0.39 l -10.24,4.86 -1.98,-3.91 c -2.37,1.28 -5.12,2.89 -7.16,4.1 -7.87,4.54 -14.77,8.57 -21.55,8.57 -1.28,0 -2.43,-0.13 -3.58,-0.45 -12.02,6.07 -21.17,8.06 -29.35,9.72 -2.69,0.63 -5.44,1.15 -8.24,1.92 l -6.91,1.92 -0.71,-0.9 c -2.81,1.73 -6.45,4.16 -9.02,5.88 -9.78,6.72 -16.1,10.81 -22.82,10.81 -1.02,0 -2.04,-0.07 -3.01,-0.19 -3.32,1.34 -7.22,3.19 -11,5.05 -6.52,3.26 -12.53,6.2 -18.22,7.54 l -1.92,0.77 c -9.59,3.71 -17.07,6.71 -27.68,14.71 -9.47,8.88 -15.16,10.74 -21.68,10.99 h -0.32 c -0.76,0.51 -2.87,2.05 -7.35,6.91 -15.22,17.59 -22.44,22.63 -31.14,22.19 -10.42,5.62 -17.52,10.23 -36.77,35.61 z m -22.31,134.79 c 0,15.79 7.74,31.59 22.31,47.19 11.19,-9.27 27.05,-17.71 46.81,-25.32 -11.25,-11.83 -17.4,-24.17 -17.4,-36.13 0,-13.17 6.15,-24.55 15.16,-34.34 h -0.06 c -9.02,9.85 -15.15,21.17 -15.15,34.34 v -35.87 c -30.57,42.01 -28.91,34.66 -29.04,30.63 -10.93,12.4 -11,8.38 3.01,-16.56 -4.99,2.17 -17.39,16.88 -26.22,27.04 0.26,4.99 0.58,7.93 0.58,7.93 z m 6.14,105.95 c -0.2,0.64 -0.45,1.15 -0.58,1.79 0.13,-0.64 0.38,-1.15 0.58,-1.79 z m 2.36,-4.73 c -0.38,0.64 -0.76,1.28 -1.08,1.92 0.32,-0.64 0.7,-1.28 1.08,-1.92 z m 2.94,-4.54 c -0.44,0.58 -0.83,1.21 -1.27,1.79 0.44,-0.58 0.83,-1.21 1.27,-1.79 z m -6.77,14.26 c -0.13,0.51 -0.26,0.89 -0.39,1.47 0.13,-0.58 0.26,-0.96 0.39,-1.47 z m 10.49,-18.8 c -0.58,0.64 -1.03,1.22 -1.61,1.86 0.58,-0.64 1.03,-1.22 1.61,-1.86 z m 4.34,-4.28 c -0.57,0.57 -1.15,1.08 -1.72,1.66 0.57,-0.58 1.15,-1.09 1.72,-1.66 z m 5.12,-4.29 c -0.71,0.58 -1.34,1.16 -1.99,1.54 0.65,-0.38 1.28,-0.96 1.99,-1.54 z m 5.62,-4.09 c -0.7,0.51 -1.34,0.89 -2.04,1.41 0.7,-0.52 1.34,-0.9 2.04,-1.41 z m 6.33,-4.03 c -0.7,0.38 -1.34,0.83 -1.98,1.15 0.64,-0.32 1.28,-0.77 1.98,-1.15 z m 6.85,-3.9 c -0.58,0.26 -1.16,0.64 -1.73,0.96 0.57,-0.32 1.15,-0.7 1.73,-0.96 z m 7.47,-3.84 c -0.44,0.26 -0.82,0.45 -1.27,0.65 0.45,-0.2 0.83,-0.39 1.27,-0.65 z m 8.13,-3.64 c 0,0 -0.13,0 -0.26,0.06 0.13,-0.06 0.26,-0.06 0.26,-0.06 z m 14.38,101.79 c 72.26,-39.58 185.94,-72.44 325.4,-94.05 -38.04,-5.82 -76.67,-8.44 -115.22,-8.44 -123.22,0 -225.46,28.58 -244.51,65.92 -0.07,-0.83 -0.13,-1.6 -0.13,-2.56 0,-43.29 110.87,-78.45 247.65,-78.45 46.22,0 92.46,3.51 137.91,12.27 7.04,1.34 14.07,2.82 21.11,4.54 12.21,-1.6 24.42,-3.13 36.89,-4.47 -13.88,-4.28 -27.69,-7.23 -40.35,-9.66 -48.65,-9.4 -99.56,-13.87 -155.56,-13.87 -161.01,0 -273.23,42.26 -273.23,80.11 0,16.76 21.87,34.34 60.04,48.66 z m 161.45,438.13 c 147.51,93.35 344.2,144.7 553.74,144.7 209.53,0 406.15,-51.35 553.73,-144.7 131.07,-82.8 208.64,-189.52 221.56,-303.46 -7.42,-9.73 -18.17,-17.01 -32.3,-20.15 -18.28,-4.15 -38.17,1.73 -51.72,-2.87 -32.11,-10.75 -60.11,5.94 -87.99,-19.51 -14.64,-13.42 -31.26,-35.74 -50.32,-44.12 -4.29,-1.98 -8.31,-3 -12.27,-3.58 -7.93,-3.45 -17.98,-2.24 -24.24,3.26 -3.2,1.15 -6.58,2.56 -9.98,4.09 -6.96,3.14 -18.03,14.4 -26.66,7.36 -6.46,-5.44 -9.91,-7.8 -18.16,-11.06 -17.39,-6.72 -28.77,4.47 -44.37,4.86 -1.99,-0.58 -3.96,-0.64 -6.01,-0.39 -3.71,-0.57 -7.61,-1.79 -11.89,-4.03 -22.26,-11.38 -41.44,-30.75 -65.03,-39.9 -13.3,-5.11 -27.56,-8.69 -42.01,-9.07 -4.8,-1.48 -9.98,-1.15 -14.45,0.63 -5.12,0.71 -10.36,1.8 -15.35,3.53 -23.47,7.79 -45.91,25.76 -71.04,19.82 -14.71,-3.52 -29.99,-6.91 -44.57,-3.97 -8.44,-9.72 -24.1,-9.27 -32.35,-2.37 -6.01,-0.76 -12.08,-1.27 -18.61,-1.73 -0.25,-0.18 -0.45,-0.57 -0.83,-0.83 -6.52,-6.2 -16.24,-6.32 -23.66,-2.94 -0.26,0 -0.31,-0.12 -0.45,-0.12 -3.26,-2.43 -7.09,-3.71 -11.12,-3.84 -21.87,-5.43 -49.75,-6.97 -69.19,5.56 -23.14,14.84 -20.77,2.17 -41.43,-7.1 -17.84,-8.05 -35.74,-4.66 -54.29,-4.6 -20.52,-8.88 -42.77,-17.65 -63.88,-16.56 -4.6,0.13 -9.52,0.77 -14.45,1.79 -8.05,-0.64 -16.3,2.24 -20.52,7.67 -8.63,5.31 -14.77,12.99 -14.83,23.67 -0.07,4.98 0.25,9.58 1.59,14.38 -9.08,-5.89 -18.03,-6.91 -29.41,-6.65 -28,0.32 -61.64,13.24 -79.54,32.55 -1.08,1.21 -2.62,1.85 -4.48,2.11 -9.65,-5.5 -15.72,-6.85 -26.28,-6.78 -15.72,-6.46 -33.25,-15.28 -43.73,-15.47 -10.74,-0.07 -20.91,8.37 -20.46,18.22 0,0.19 0.06,0.38 0.06,0.51 -1.6,4.16 -3.01,8.83 -4.6,13.43 -5.25,-1.66 -10.36,-3.52 -15.54,-5.25 -3.07,-0.95 -5.95,-1.85 -8.89,-2.75 -35.1,-24.62 -69.18,-2.43 -91.05,24.75 -7.09,5.37 -14.32,10.68 -21.87,15.02 -6.9,3.97 -13.94,6.52 -21.1,8.25 -1.6,-0.64 -3.13,-1.27 -4.54,-2.04 -10.74,-5.5 -24.81,-1.66 -34.33,5.37 -16.89,-0.07 -33.96,-0.77 -51.03,2.94 -14.19,3.14 -23.08,7.67 -29.47,13.3 -5.64,-2.24 -12.28,-3.32 -20.72,-2.69 -14.14,1.16 -22,10.68 -19.7,23.09 3.71,19.75 -1.85,27.3 -18.86,36.12 -0.58,0.39 -1.22,0.71 -1.79,1.09 27.82,93.8 100.13,180.7 210.68,250.46 z m 1354.6,-496.18 c 0,-21.3 -31.21,-37.02 -44.57,-43.81 -23.66,-12.08 -50.19,-18.09 -73.08,-22.5 -48.66,-9.34 -99.49,-13.94 -155.57,-13.94 -93.04,0 -169.7,14.13 -217.91,33.44 11.19,1.35 22.19,2.75 33.06,4.09 45.4,-16.11 111.32,-26.34 184.85,-26.34 46.23,0 92.46,3.58 137.86,12.34 22.7,4.35 45.52,9.97 66.24,20.46 16.82,8.51 43.55,23.15 43.55,45.72 0,4.29 -1.09,8.5 -3.14,12.66 -1.92,-21.17 -27.24,-35.04 -43.42,-43.29 -20.71,-10.36 -43.54,-15.99 -66.17,-20.4 -45.46,-8.69 -91.63,-12.28 -137.93,-12.28 -55.88,0 -107.35,5.89 -148.79,15.74 144.96,21.48 263.5,54.86 338.12,95.52 54.67,-15.59 86.9,-37.21 86.9,-57.41 z m -62.4,-162.54 c -0.33,-0.26 -0.52,-0.39 -0.65,-0.51 1.48,4.54 2.37,9.33 2.37,14.45 v 49.42 c 1.08,0.39 2.17,0.83 3.26,1.15 0.32,0.2 0.57,0.26 0.83,0.45 5.5,2.18 11,4.54 16.31,7.16 6.2,3.14 13.62,7.04 20.72,11.64 5.56,-9.59 8.44,-19.31 8.44,-28.96 l -0.07,-1.86 0.13,-1.03 c 0.19,-1.59 0.77,-4.72 1.6,-9.2 l 1.21,-6.33 0.13,-0.32 c -4.73,-4.16 -10.81,-6.91 -17.13,-9.79 -9.02,-12.33 -28.2,-11.31 -37.15,-26.27 z m -40.87,-44.7 c -1.79,-3.58 -4.73,-5.17 -8.56,-5.24 2.81,1.66 5.69,3.39 8.56,5.24 z m -1057.65,36.96 c 8,-2.11 46.74,-14.9 31.46,-26.28 -16.43,-12.15 -33.44,14.77 -31.46,26.28 z m -58.5,8.76 c 5.11,-6.2 14.89,-10.8 19.37,-15.98 6.07,-7.1 8.89,-24.24 -9.91,-21.62 -15.47,2.3 -10.55,28.45 -9.46,37.6 z m -285.95,70.33 c 4.29,-1.4 8.7,-2.75 13.24,-4.09 v 0 c 0.06,0 0.13,0 0.13,0 4.79,-1.41 9.65,-2.62 14.57,-3.9 0.9,-0.19 1.73,-0.45 2.63,-0.57 0.51,-0.2 1.02,-0.26 1.59,-0.39 -7.99,-14.64 -7.79,-33.63 19.77,-51.79 51.59,-34.08 95.52,-42.65 145.4,-48.98 45.46,-5.95 99.04,-13.11 157.1,-12.53 56.07,0.45 92.33,2.05 118.48,6.14 26.09,3.96 40.22,1.85 53.72,9.78 12.46,7.35 4.47,12.09 -12.67,20.78 -17.07,8.89 -16.18,8.89 -32.35,14.45 -16.24,5.63 -35.81,-3.77 -77.82,-1.34 -36.64,2.11 -52.82,5.37 -76.22,11.83 -23.4,6.39 -38.87,12.21 -53.2,21.42 -5.82,3.71 -11.31,8.12 -14.06,13.81 26.53,1.66 53.07,4.48 79.35,8.76 1.85,-6.91 -3.14,-9.14 3.13,-13.49 6.78,-4.8 3.13,-2.37 15.09,-7.16 12.02,-4.8 13.81,-4.8 24.11,-7.16 10.42,-2.43 14,-1.92 30.69,-4.16 16.62,-2.37 21.61,-0.45 30.18,1.41 8.5,1.91 16.56,4.34 21.16,3.51 2.18,-0.44 3.52,0.07 4.29,0.71 16.17,-11.19 39.32,-21.1 67.65,-29.16 v 0 c 0.06,0 0.06,0 0.25,-0.13 4.61,-1.28 9.47,-2.56 14.45,-3.7 0.83,-0.33 1.8,-0.52 2.63,-0.71 5.04,-1.28 10.17,-2.43 15.53,-3.52 0.58,-0.12 1.22,-0.32 1.73,-0.38 5.12,-1.09 10.3,-2.11 15.66,-3.01 0.65,-0.12 1.22,-0.25 1.86,-0.44 5.82,-0.96 11.7,-1.86 17.65,-2.75 0.58,-0.19 1.21,-0.26 1.85,-0.33 0.9,-0.12 1.92,-0.19 2.82,-0.38 3.96,-5.11 8.88,-10.16 14.7,-15.09 -71.87,-21.99 -167.33,-34.21 -269.06,-34.21 -75.77,0 -147.71,6.27 -213.63,18.61 -31.33,5.89 -67.72,14.07 -100.2,30.12 -18.03,8.82 -60.36,29.8 -60.36,57.16 0,9.34 6.33,20.08 18.16,30.88 z m 47.38,25.71 c -0.32,0 -0.51,0.07 -0.7,0.07 0.26,0 0.51,-0.07 0.77,-0.14 0,0 -0.07,0 -0.07,0.07 z M 1813.14,2791 h -0.07 c 0.07,0 0.13,0 0.13,0 0,0 0,0 -0.06,0 z m 17.07,-0.58 c 0.7,-0.06 1.47,-0.06 2.17,-0.06 -0.7,0 -1.47,0 -2.17,0.06 z m 77.37,-63.11 c -2.24,-8.31 -4.67,-16.94 -9.34,-24.55 -5.82,-9.4 -28.2,-25.39 -29.99,-4.79 -1.4,16.04 25.51,24.23 39.33,29.34 z m -20.72,24.56 c -10.74,-5.12 -20.66,-11.38 -31.27,-16.76 -11.77,-5.81 -59.59,-14.71 -49.49,11.26 1.03,2.68 2.75,4.8 4.99,6.45 0.83,0 1.66,-0.06 2.43,-0.12 0.38,0 0.77,0 1.08,0 v 0 c 11.7,-0.39 23.6,-0.77 35.69,-0.77 10.87,0 21.67,0.19 32.48,0.64 1.47,-0.19 2.87,-0.51 4.09,-0.7 z m 135.1,55.24 c -0.38,-0.13 -0.76,-0.19 -1.08,-0.26 v 0 c 0.32,0.07 0.7,0.13 1.08,0.26 z m 10.11,2.3 c 0.06,0 0.13,0.07 0.25,0.07 -0.12,0 -0.19,-0.07 -0.25,-0.07 z m 12.21,3.2 c -0.64,-0.19 -1.28,-0.32 -1.91,-0.51 0,0 0,0 -0.07,0 0.64,0.19 1.34,0.32 1.98,0.51 z m 5.5,1.66 h -0.06 c 0.77,0.26 1.53,0.45 2.3,0.71 -0.77,-0.26 -1.53,-0.45 -2.24,-0.71 z m 605.59,1.6 v 0 c 2.81,-1.15 5.63,-2.3 8.63,-3.39 -2.94,1.09 -5.82,2.24 -8.63,3.39 z m 9.02,-3.52 c 2.94,-1.21 6,-2.17 9.27,-3.26 -3.27,1.09 -6.33,2.05 -9.27,3.26 z m 11.95,-4.21 c 2.81,-0.9 5.69,-1.86 8.57,-2.69 -2.88,0.83 -5.76,1.79 -8.57,2.69 z m 15.09,-4.67 c -0.77,0.25 -1.53,0.51 -2.3,0.7 2.49,-0.77 5.05,-1.47 7.73,-2.18 -1.85,0.52 -3.64,1.03 -5.43,1.48 z m 16.5,-4.28 c -0.83,0.19 -1.66,0.38 -2.43,0.51 -0.77,0.25 -1.41,0.44 -2.17,0.63 2.55,-0.7 5.17,-1.28 7.79,-1.92 -0.95,0.26 -2.17,0.45 -3.19,0.78 z m 16.88,-3.84 c -0.39,0.06 -0.64,0.12 -1.09,0.19 -1.47,0.32 -2.75,0.64 -4.22,1.02 2.37,-0.51 4.73,-1.09 7.16,-1.6 -0.63,0.07 -1.34,0.32 -1.85,0.39 z m 17.77,-3.39 c -0.44,0.06 -0.7,0.13 -1.08,0.19 -1.02,0.19 -2.05,0.45 -3.07,0.51 1.47,-0.13 2.94,-0.51 4.48,-0.77 -0.14,0.07 -0.2,0.07 -0.33,0.07 z m 36.9,-5.44 c 1.28,-0.13 2.55,-0.32 3.77,-0.44 -1.22,0.12 -2.49,0.31 -3.77,0.44 z m -17.65,2.37 c -0.38,0.06 -0.7,0.06 -1.02,0.13 -0.07,0 -0.13,0 -0.26,0 0.96,-0.07 2.05,-0.19 3.07,-0.39 -0.64,0.07 -1.28,0.2 -1.79,0.26 z m 59.91,-6.27 c 0.26,0 0.45,0 0.64,-0.07 -0.19,0.07 -0.38,0.07 -0.64,0.07 z m -19.5,1.54 c -0.51,0 -0.96,0.06 -1.47,0.06 -0.64,0.06 -1.34,0.13 -2.05,0.19 1.6,-0.13 3.14,-0.25 4.67,-0.32 -0.32,0 -0.83,0 -1.15,0.07 z m 249.37,13.49 c -0.32,-0.07 -0.77,-0.13 -1.02,-0.26 -0.07,0 -0.07,0 -0.07,0 0.32,0.13 0.77,0.19 1.09,0.26 z m 10.1,2.3 c 0.07,0 0.13,0 0.32,0.13 -0.19,-0.13 -0.25,-0.13 -0.32,-0.13 z m 12.21,3.2 c -0.63,-0.13 -1.27,-0.39 -1.85,-0.51 0,0 -0.12,0 -0.12,-0.07 0.63,0.19 1.27,0.45 1.97,0.58 z m 5.5,1.66 -0.06,-0.07 c 0.77,0.26 1.54,0.52 2.3,0.77 -0.76,-0.19 -1.53,-0.44 -2.24,-0.7 z m 11,3.71 c -0.89,-0.38 -1.85,-0.7 -2.81,-1.09 v 0 c 0.96,0.39 1.92,0.71 2.81,1.09 z m -872.54,-71.87 h -0.06 c -0.26,0.19 -0.45,0.19 -0.71,0.25 0.26,-0.06 0.52,-0.06 0.77,-0.25 z m -94.95,33.18 c -0.7,0.45 -1.34,0.83 -1.99,1.22 0.65,-0.39 1.29,-0.77 1.99,-1.22 z m 6.91,-3.9 c -0.65,0.39 -1.16,0.64 -1.8,0.9 0.64,-0.26 1.15,-0.51 1.8,-0.9 z m 7.47,-3.77 c -0.38,0.25 -0.82,0.39 -1.34,0.64 0.52,-0.25 0.96,-0.39 1.34,-0.64 z m 8.13,-3.71 c -0.07,0.13 -0.13,0.13 -0.26,0.19 0.13,-0.06 0.19,-0.06 0.26,-0.19 z m -30.82,16.82 c 0.63,-0.45 1.34,-0.96 2.04,-1.47 -0.7,0.51 -1.41,1.02 -2.04,1.47 z m -56.72,41.69 c 1.03,0.32 1.98,0.7 2.88,1.02 v 0 c -0.9,-0.32 -1.85,-0.7 -2.88,-1.02 z m 688.14,-82.68 c 1.08,-9.97 6.39,-38.43 -10.36,-40.79 -20.46,-2.94 -17.46,15.67 -10.74,23.4 4.86,5.69 15.47,10.74 21.1,17.39 z m 48.72,12.47 c 12.21,-5.56 23.4,-13.17 22.44,-24.23 -1.98,-22.26 -26.27,-4.92 -32.61,5.3 -4.02,6.46 -6.52,13.75 -8.63,21.04 6.2,-0.77 12.47,-1.47 18.8,-2.11 z m -112.47,-21.93 c 2.04,-12.53 -16.37,-41.82 -34.15,-28.58 -16.75,12.46 25.39,26.28 34.15,28.58 z m -346.31,-2.04 c 0,0 -0.06,0 -0.19,0 0,0 0,0 -0.07,0 0.07,0 0.26,0 0.26,0 z m -225.01,55.24 c -0.7,0.57 -1.34,1.02 -1.98,1.53 0.64,-0.51 1.28,-0.96 1.98,-1.53 z m -6.84,5.88 c 0.58,-0.51 1.15,-1.08 1.79,-1.66 -0.64,0.58 -1.21,1.15 -1.79,1.66 z m -6.27,7.23 c -0.51,0.64 -0.89,1.08 -1.34,1.72 0.45,-0.64 0.83,-1.08 1.34,-1.72 z m 3.65,-4.54 c -0.51,0.63 -1.03,1.14 -1.54,1.79 0.51,-0.65 1.03,-1.16 1.54,-1.79 z m 250.78,19.63 c 86.96,0 170.66,3.89 248.98,10.99 1.03,-2.11 2.37,-4.15 3.97,-6.2 -9.28,-9.02 -21.68,-15.66 -31.14,-20.46 -20.72,-10.55 -43.55,-16.11 -66.25,-20.4 -45.39,-8.76 -91.62,-12.27 -137.85,-12.27 -113.24,0 -208.7,24.04 -238.18,56.84 70.08,-5.43 143.99,-8.5 220.47,-8.5 z m 192.33,-67.21 c -0.38,-0.06 -0.7,-0.12 -1.09,-0.25 v 0 c 0.32,0.13 0.71,0.19 1.09,0.25 z m 10.17,2.31 c 0,0 0.13,0 0.19,0.12 -0.06,-0.12 -0.13,-0.12 -0.19,-0.12 z m 12.15,3.26 c -0.64,-0.26 -1.28,-0.39 -1.92,-0.51 0,0 0,0 -0.06,-0.07 0.7,0.19 1.34,0.32 1.98,0.58 z m 5.5,1.66 c 0,-0.06 0,-0.06 0,-0.06 0.76,0.19 1.47,0.44 2.23,0.76 -0.76,-0.32 -1.47,-0.57 -2.23,-0.7 z m 11.12,3.58 c -1.02,-0.26 -1.92,-0.64 -2.94,-0.96 v 0 c 1.02,0.32 1.92,0.7 2.94,0.96 z m -230.7,-27.56 c 0.77,0 1.47,0 2.24,0 -0.77,0 -1.47,0 -2.24,0 z m -249.94,78.07 c 6.83,4.41 13.42,9.4 18.73,15.28 1.47,-0.06 2.94,-0.25 4.41,-0.32 9.6,-40.53 116.44,-72.63 246.88,-72.63 46.29,0 92.46,3.58 137.92,12.28 22.63,4.41 45.52,10.03 66.24,20.39 11.51,5.88 27.56,14.52 36.64,26.6 5.37,-4.79 12.09,-9.33 19.82,-13.68 -10.23,-9.4 -24.04,-16.43 -31.84,-20.34 -23.72,-12.08 -50.26,-18.15 -73.08,-22.5 -48.79,-9.34 -99.69,-13.94 -155.7,-13.94 -145.15,0 -250.65,34.4 -270.02,68.86 z m 955.53,-39.26 c 0.26,0.07 0.7,0.13 0.97,0.2 3.89,0.95 7.66,1.91 11.56,3 0.97,0.26 2.11,0.51 3.14,0.83 0.58,0.13 1.21,0.39 1.85,0.58 -9.59,-24.81 -46.93,-43.29 -64.13,-51.8 -35.49,-17.45 -75.26,-26.47 -109.4,-32.8 -71.88,-13.42 -150.2,-20.21 -232.82,-20.21 -94.82,0 -178.26,9.54 -244.7,24.56 22.38,1.09 44.7,3.2 66.89,6.2 12.59,-4.41 27.23,-3.58 50.63,-7.09 28.53,-4.42 67.98,-6.08 128.98,-6.72 63.24,-0.58 121.48,7.23 171.11,13.68 54.22,6.98 101.98,16.25 158.12,53.33 3.65,2.3 6.71,4.73 9.53,7.1 9.01,1.41 18.1,2.88 27.17,4.67 4.29,0.83 8.7,1.66 13.11,2.68 0.38,0.13 0.9,0.19 1.28,0.26 2.3,0.58 4.47,0.96 6.71,1.53 z m -367.6,4.42 c 4.74,-1.28 9.59,-2.57 14.58,-3.78 0.84,-0.25 1.67,-0.51 2.56,-0.7 5.12,-1.28 10.23,-2.37 15.54,-3.52 0.64,-0.12 1.28,-0.19 1.72,-0.31 2.75,-0.58 5.5,-1.16 8.25,-1.61 -9.33,-3.77 -20.07,-7.1 -32.92,-10.67 -23.54,-6.4 -40.42,-10.04 -74.56,-12.34 12.98,8.31 25.19,19.24 28.64,33.18 3.33,0.9 6.98,2.24 12.99,4.6 1.4,0.58 2.49,1.02 3.51,1.41 6.2,-2.17 12.73,-4.28 19.57,-6.13 v 0 c 0.06,0 0.12,0 0.12,-0.13 z m -47.06,55.56 h -0.06 c 0,-0.06 0.06,-0.06 0.2,-0.06 v -0.07 c -0.14,0.07 -0.2,0.07 -0.27,0.13 -1.53,-0.13 -3.06,-0.13 -4.53,-0.13 1.53,0.13 3.07,0.32 4.6,0.45 0,-0.07 0.06,-0.19 0.06,-0.32 z m -602.45,-47.38 c 1.03,0.39 2.11,0.64 3.13,0.83 1.67,0.58 3.27,1.09 4.93,1.47 1.15,0.45 2.36,0.77 3.51,1.22 1.67,0.45 3.27,0.96 4.8,1.53 1.28,0.45 2.37,0.83 3.58,1.28 1.6,0.58 3.19,1.21 4.8,1.85 0.25,0.07 0.57,0.19 0.83,0.26 5.56,2.17 11.06,4.6 16.3,7.29 2.18,1.08 4.61,2.37 7.04,3.64 v -19.49 c 0,-4.42 1.08,-8.64 3,-12.86 -4.22,0.96 -8.88,1.79 -14.89,4.22 -11.58,4.48 -20.66,7.29 -33.64,8.5 -1.41,0.14 -2.56,0.19 -3.71,0.19 0.06,0.07 0.26,0.07 0.32,0.07 z m -397.97,-71.3 c -0.07,0 -0.07,0 -0.07,0.07 6.91,-5.44 14.4,-10.17 21.75,-14.39 -7.35,4.22 -14.77,8.95 -21.68,14.32 z m 360.44,-74.1 c -31.01,0 -62.03,1.08 -92.97,3.19 30.94,-2.11 61.96,-3.19 92.97,-3.19 111.64,0 212.28,14.51 283.13,37.85 v 0 c -70.85,-23.34 -171.49,-37.85 -283.13,-37.85 z m 384.35,51.66 c 0,0 0,0 0.06,0 74.68,-20.71 173.41,-33.19 281.4,-33.19 41.96,0 83.77,1.67 125.52,5.44 -41.75,-3.77 -83.56,-5.44 -125.52,-5.44 -108.12,0 -206.72,12.48 -281.46,33.19 z m 655.14,34.72 c 22.64,13.36 45.27,31.85 48.66,56.27 0,0 0,0 0.06,0.07 -3.45,-24.56 -26.08,-42.98 -48.72,-56.34 z M 2117.49,2582.3 c 6.91,0.7 13.62,1.4 20.4,2.17 0.51,-11.96 -5.88,-13.36 -20.4,-2.17 z m 458.47,11.82 c -16.18,0.96 -17.34,-21.04 -43.81,-3.9 -16.11,0.9 -35.42,7.04 -45.2,-1.53 -25.64,15.92 -8.76,-33.51 -44.44,-1.99 -4.35,-16.75 -22.77,-11.63 -45.02,-0.57 -16.43,2.11 -29.79,-0.32 -44.63,-0.51 -18.03,8.5 -12.72,-18.8 -30.75,-9.79 -5.88,-9.84 -28.84,6.78 -42.14,8.7 -27.37,23.66 -23.98,0.07 -37.28,2.37 -1.28,-16.18 -32.54,14 -36.44,2.36 -8.12,0 -16.56,0.58 -25.01,1.09 68.17,10.87 124.63,27.81 161.9,48.34 64.46,-24.17 156.21,-40.99 260.88,-46.17 -5.69,-5.17 -11,-10.8 -28.06,1.6 z m 53.7,-2.62 c 6.4,-0.13 12.73,-0.25 19.31,-0.38 -4.66,-2.56 -10.29,-3.71 -19.31,0.38 z m 445.74,-268.04 c 1.6,3.13 3.07,6.21 4.67,9.01 l 2.62,2.82 c 3.51,3.58 7.41,7.16 12.15,11.51 3.19,3.01 5.62,3.39 7.1,3.39 1.53,0 3.19,-0.45 4.98,-1.22 -6.01,-3 -11.64,-6.97 -15.85,-13.24 -5.96,-8.88 -11.71,-13.36 -17.2,-15.53 z M 2947.58,2267 c -6.78,7.03 -13.75,13.04 -21.17,18.42 -1.47,0.95 -2.23,2.17 -2.68,3.45 l -0.13,0.51 c -0.58,1.98 -0.32,4.54 0.71,6.97 l 0.63,1.66 c 1.09,1.54 2.31,3.01 4.03,3.97 l 1.09,0.57 c 1.09,0.51 1.85,0.77 2.56,0.9 0.45,0 0.83,0.19 1.28,0.25 4.4,0.84 8.69,2.11 12.91,3.71 l -0.06,-0.51 9.27,4.41 c 2.56,1.15 4.99,2.37 7.48,3.58 l 0.64,0.26 c 12.66,6.13 24.49,11.76 37.28,10.29 1.21,-0.06 2.24,-0.32 3.19,-0.44 3.14,-0.71 5.89,-1.67 8.25,-3.14 l 1.22,-0.64 c 3.2,-2.3 5.76,-5.37 7.73,-9.33 l 4.16,-8.64 7.93,7.35 c 1.15,0.9 2.11,1.86 3.07,2.95 0.32,0.19 0.58,0.32 0.83,0.64 l 2.56,-1.16 1.53,3.33 c 1.16,0.2 2.37,0.2 3.52,0 l 2.36,-0.58 2.11,0.97 c 5.31,2.49 11.71,3.32 18.55,2.75 l 2.74,-0.26 c -13.23,-4.09 -24.55,2.5 -32.16,-14.26 -6.01,-13.62 -22.18,-23.66 -38.61,-30.37 -12.79,-5.24 -34.15,-5.44 -52.82,-7.61 z m -91.12,-38.36 c -0.38,1.27 -0.57,2.36 -0.82,3.64 -0.33,0.96 -0.46,1.91 -0.58,2.94 3.77,-2.68 7.67,-4.09 11.63,-4.09 6.85,0 12.98,3.96 18.61,11.96 1.09,-0.84 2.24,-1.6 3.26,-2.43 1.28,-0.83 2.69,-1.41 4.16,-1.67 -4.29,-2.75 -9.15,-5.05 -15.28,-6.65 -6.72,-1.6 -13.75,-2.81 -20.98,-3.7 z m -167.84,-16.76 c 0.77,0.83 1.6,1.79 2.68,2.69 l 2.05,1.66 0.38,2.68 c 0.13,0.52 0.26,1.15 0.32,1.8 1.67,0.25 3.33,0.19 4.8,-0.26 l 15.09,-5.43 -4.41,10.55 2.17,-2.05 c 4.99,-5.18 10.17,-10.87 15.6,-17.65 -12.46,-1.72 -26.53,2.49 -40.15,4.16 z m -191.7,-26.66 c -1.6,3.77 -4.73,6.4 -8.31,7.42 -0.77,1.02 -1.54,2.24 -2.37,3.38 -5.24,7.93 -10.42,15.61 -15.09,23.41 l 3.84,-4.16 c 2.43,-2.62 4.73,-5.24 6.84,-7.8 l 3.13,-3.9 4.67,1.6 c 10.1,3.45 21.55,5.62 35.04,6.59 0.71,-4.35 1.41,-8.9 2.18,-13.31 l 0.31,-1.47 0.83,-1.21 c 1.73,-2.43 3.4,-5.05 4.93,-7.68 0.06,-0.06 0.06,-0.12 0.13,-0.19 -1.53,-0.7 -3.07,-1.46 -4.67,-2.29 -8.83,-5.06 -19.44,-7.17 -30.75,-7.36 0.44,2.3 0.19,4.66 -0.71,6.97 z m -535,28.64 0.97,1.22 -3.27,4.54 c -0.38,0.44 -0.64,1.02 -1.02,1.41 0.32,1.08 0.57,1.97 0.77,2.68 2.36,6.39 6.97,12.02 11.7,13.94 8.31,3.2 16.05,4.93 23.02,4.93 1.21,0 2.55,-0.07 3.83,-0.2 -0.25,-1.53 -0.63,-3.07 -1.14,-4.47 l -1.54,-3.91 2.75,-3.19 c 2.68,-3.14 4.41,-7.81 4.8,-12.66 l 0.25,-3.07 2.43,-1.98 c 2.55,-2.11 4.6,-6.01 5.63,-10.49 -5.88,-0.58 -11.38,-0.77 -15.99,-0.19 -10.68,1.41 -22,6.52 -33.19,11.44 z m -165.03,35.68 c 9.4,-1.92 18.54,-6.2 25.07,-14.64 -3.39,1.21 -6.65,2.18 -9.79,3.01 -5.18,1.4 -11.63,4.28 -18.34,7.67 0.95,1.41 1.97,2.75 3.06,3.96 z m -256.78,107.87 c -2.5,0.51 -5.18,0.9 -8.06,1.03 l 3.45,7.28 c 0.25,0.58 0.52,1.22 0.77,1.73 0.19,0.51 0.45,1.09 0.7,1.66 0.9,1.73 2.05,3.2 3.26,4.54 -0.12,-5.3 -0.19,-10.74 -0.12,-16.24 z m 11.44,50.77 c 2.11,0.51 4.22,0.89 6.27,1.35 2.68,0.51 5.3,1.02 7.8,1.46 -0.58,-3.64 -0.51,-7.15 0.38,-10.55 -5.75,3.2 -11.64,5.5 -17.65,7.04 1.03,0.32 2.18,0.51 3.2,0.7 z m 153.85,90.54 v 0 -14.13 c 0,-9.27 13.29,-17.71 35.35,-24.49 v 0 c 0.26,-0.06 0.39,-0.13 0.58,-0.13 1.41,-0.44 2.87,-0.83 4.48,-1.27 0.31,-0.13 0.57,-0.2 1.02,-0.26 3.9,-1.08 7.93,-2.05 12.21,-3.07 0.25,0 0.39,-0.06 0.58,-0.06 1.91,-0.39 3.9,-0.84 5.94,-1.16 0.45,-0.06 1.09,-0.32 1.6,-0.38 1.66,-0.25 3.39,-0.64 5.05,-0.89 0.7,-0.13 1.41,-0.19 2.18,-0.39 1.53,-0.25 3.19,-0.51 4.86,-0.77 0.76,-0.18 1.53,-0.25 2.42,-0.37 1.6,-0.27 3.27,-0.52 5.06,-0.71 0.77,-0.19 1.53,-0.26 2.3,-0.38 1.79,-0.26 3.64,-0.52 5.56,-0.71 0,0 0.13,0 0.19,0 -0.19,0 -0.32,0 -0.44,0 -1.41,0.13 -2.82,0.19 -4.23,0.39 -3,0.25 -5.82,0.51 -8.76,0.83 -1.21,0.19 -2.36,0.25 -3.58,0.38 -3.06,0.32 -6.07,0.71 -9.07,1.09 -0.9,0.06 -1.92,0.25 -2.82,0.32 -3.13,0.38 -6.2,0.89 -9.27,1.27 -0.7,0.07 -1.47,0.32 -2.17,0.39 -3.26,0.39 -6.33,0.96 -9.46,1.53 -0.46,0.07 -1.03,0.13 -1.54,0.2 -3.26,0.63 -6.52,1.28 -9.6,1.85 -0.38,0 -0.63,0.13 -0.95,0.19 -3.2,0.58 -6.4,1.28 -9.46,1.98 -0.13,0.07 -0.39,0.07 -0.52,0.13 -3.32,0.71 -6.39,1.47 -9.46,2.3 h -0.13 c -29.86,8 -51.34,18.48 -61.51,31.27 4.92,10.17 15.79,20.34 31.46,30.18 6.84,-3.83 12.98,-6.2 19.05,-8.57 l 2.75,-1.15 2.11,-0.64 c 1.48,-0.25 3.77,-1.21 6.4,-2.37 -5.31,-3.83 -8.18,-7.92 -8.18,-12.21 0,0 0,-0.12 0,-0.19 z m 113.55,-29.98 c -1.15,0.12 -2.3,0.19 -3.32,0.32 -1.03,0.06 -1.86,0.12 -2.82,0.25 -1.02,0.06 -2.1,0.32 -3.19,0.38 -0.9,0.13 -1.79,0.2 -2.75,0.32 -0.96,0.07 -1.92,0.32 -3.01,0.39 -0.89,0.12 -1.79,0.25 -2.75,0.32 -0.89,0.12 -1.85,0.38 -2.81,0.44 -0.96,0.13 -1.98,0.26 -2.94,0.38 -0.83,0.2 -1.66,0.39 -2.43,0.46 -1.09,0.19 -2.11,0.38 -3.14,0.51 -0.7,0.19 -1.46,0.25 -2.17,0.38 -0.96,0.19 -1.98,0.38 -2.94,0.57 -0.7,0.13 -1.41,0.32 -2.11,0.39 -1.08,0.19 -2.05,0.44 -3,0.7 -0.58,0.07 -1.22,0.2 -1.86,0.26 -1.08,0.26 -2.05,0.51 -3,0.7 -0.58,0.19 -1.15,0.39 -1.67,0.45 -1.02,0.25 -2.04,0.51 -3,0.76 -0.51,0.13 -0.96,0.2 -1.41,0.32 -1.02,0.33 -2.05,0.58 -3,0.84 -0.45,0.19 -0.84,0.25 -1.22,0.38 -0.96,0.26 -1.98,0.58 -2.88,0.83 -0.38,0.13 -0.7,0.19 -1.08,0.38 -1.02,0.32 -1.92,0.65 -2.88,0.97 -0.26,0.06 -0.51,0.19 -0.89,0.25 -0.9,0.32 -1.86,0.7 -2.75,1.02 -0.26,0.2 -0.51,0.26 -0.71,0.32 -0.89,0.39 -1.72,0.7 -2.69,1.09 -0.19,0.07 -0.38,0.13 -0.51,0.19 -0.89,0.45 -1.73,0.77 -2.56,1.22 -0.12,0.06 -0.25,0.12 -0.44,0.19 -0.83,0.45 -1.6,0.83 -2.37,1.28 -0.06,0.06 -0.19,0.13 -0.38,0.19 -0.77,0.45 -1.47,0.83 -2.11,1.34 -0.13,0 -0.19,0.07 -0.26,0.13 -0.7,0.45 -1.34,0.9 -1.98,1.34 0,0 -0.06,0.07 -0.12,0.13 -0.65,0.51 -1.22,0.96 -1.73,1.41 0,0.12 -0.13,0.12 -0.13,0.19 -0.51,0.45 -1.02,0.9 -1.47,1.47 l -0.07,0.07 c -0.25,0.25 -0.57,0.7 -0.76,1.02 1.41,1.98 3.58,3.89 6.45,5.69 l 6.91,-1.92 0.19,0.39 c 1.86,-1.29 3.84,-2.56 5.37,-3.65 9.08,-6.2 16.89,-11.51 24.62,-11.51 1.09,0 2.11,0.06 3.2,0.25 1.79,-0.44 3.71,-0.83 5.63,-1.21 8.5,-1.86 16.62,-3.58 28.58,-10.36 l 4.22,-2.49 c -0.64,0.06 -1.28,0.12 -1.86,0.26 z m 12.22,-1.03 c -0.26,0 -0.58,0 -0.83,0.06 l 0.38,1.09 c 0.64,-0.45 1.4,-0.83 2.11,-1.28 -0.52,0.07 -1.09,0.07 -1.66,0.13 z m 539.21,-68.74 c -15.22,-4.86 -30.5,-9.27 -45.97,-13.36 -18.93,-4.99 -37.54,-9.33 -55.5,-12.91 -0.13,-0.07 -0.26,-0.07 -0.38,-0.07 -3.46,-0.7 -6.85,-1.34 -10.24,-1.98 -0.38,-0.06 -0.83,-0.13 -1.34,-0.26 -3,-0.51 -6.01,-1.09 -9.08,-1.66 -0.77,-0.13 -1.53,-0.19 -2.3,-0.32 -2.68,-0.51 -5.31,-0.96 -7.99,-1.35 -1.09,-0.12 -2.11,-0.31 -3.2,-0.44 -2.3,-0.39 -4.54,-0.7 -6.78,-1.09 -1.34,-0.19 -2.69,-0.32 -4.03,-0.57 -1.98,-0.19 -3.96,-0.51 -5.81,-0.77 -1.67,-0.25 -3.21,-0.39 -4.74,-0.51 -1.59,-0.26 -3.32,-0.51 -4.86,-0.64 -1.98,-0.19 -3.77,-0.38 -5.75,-0.64 -1.22,-0.06 -2.43,-0.19 -3.58,-0.32 -2.11,-0.25 -4.23,-0.45 -6.33,-0.57 -0.96,-0.07 -1.86,-0.14 -2.69,-0.19 -2.49,-0.32 -4.86,-0.46 -7.22,-0.58 -0.52,0 -1.09,-0.07 -1.6,-0.07 -2.56,-0.13 -5.05,-0.38 -7.48,-0.44 -0.39,-0.07 -0.64,-0.07 -1.02,-0.07 -2.69,-0.13 -5.18,-0.19 -7.81,-0.25 -0.06,0 -0.19,0 -0.32,0 -34.01,-0.77 -59.33,3.19 -71.03,12.14 3.96,12.03 20.14,26.29 45.2,40.8 0.07,0 0.19,-0.06 0.26,-0.06 22.82,-9.73 40.85,-11 54.79,-4.16 1.41,-0.13 2.88,-0.19 4.29,-0.19 6.65,0 11.76,1.79 15.92,3.33 3.26,1.14 5.56,2.04 8.18,2.04 3.84,0 8.83,-1.92 15.03,-5.76 l 2.68,-1.66 3.14,-0.06 c 3.96,-0.2 10.87,-2.56 16.95,-4.67 8.69,-2.94 17.58,-5.95 25.76,-5.95 8.7,0 15.6,3.65 19.7,10.04 4.09,-0.13 9.46,-1.21 14.64,-2.23 6.9,-1.41 14.07,-2.82 20.84,-2.82 6.34,0 11.7,1.15 16.12,3.71 4.28,0.26 9.78,0.13 15.15,-0.06 -1.79,-0.39 -3.39,-0.58 -5.05,-0.77 0.96,-1.54 2.11,-3.14 3.45,-4.61 z m 64.2,4.55 h -14.26 c 0.19,0.06 0.44,0.12 0.64,0.25 3.64,1.28 5.44,1.92 7.93,1.6 l 10.16,-1.21 1.61,5.81 c 1.85,-0.51 4.09,-1.21 6.01,-1.79 1.34,-0.38 2.74,-0.83 4.15,-1.15 -5.05,-2.3 -10.55,-3.51 -16.24,-3.51 z m 277.25,25.25 c 2.69,-1.53 5.3,-2.69 7.73,-3.71 -29.41,-4.22 -57.92,-7.16 -84.97,-8.82 -0.2,0 -0.39,0 -0.71,0 -2.17,-0.26 -4.22,-0.32 -6.32,-0.45 6.9,1.47 13.42,3.26 19.63,5.56 10.48,0.58 21.35,1.86 33.82,3.9 2.11,0.32 4.73,0.39 7.35,0.39 l 4.29,-0.07 c 4.79,0 12.34,0 19.18,3.2 z m 170.15,-27.81 c 5.82,1.59 11.7,3.2 17.58,4.85 4.47,-0.44 9.14,-0.83 13.75,-1.14 v 0 c 0.32,-0.07 0.57,-0.07 0.96,-0.07 13.49,-1.08 27.17,-1.85 40.67,-2.36 -3.78,0.06 -7.42,0.06 -11.14,0.06 -21.16,0 -41.62,-0.51 -61.82,-1.34 z m 212.41,-37.99 c 0.19,1.15 0.19,2.31 0.25,3.53 0.26,0.56 0.52,1.21 0.9,1.78 l 2.36,3.91 c 12.15,-0.9 23.99,-1.92 35.37,-2.89 l 1.78,-1.27 c -6.45,-1.09 -12.33,-4.09 -16.69,-8.83 -4.79,2.5 -10.1,5.18 -16.42,5.18 -2.56,0 -4.99,-0.51 -7.55,-1.41 z m -34.59,-25.32 c 1.27,0 2.68,-0.19 4.02,-0.7 0.77,-0.19 1.48,-0.45 2.24,-0.7 -0.51,-0.77 -0.83,-1.54 -1.28,-2.37 -5.36,0 -10.35,-0.7 -15.02,-2.04 2.87,3.7 6.39,5.81 10.04,5.81 z m 21.1,32.55 c 0,-0.13 -0.07,-0.25 -0.07,-0.39 l -0.38,-1.02 v -0.95 c -0.06,-2.56 -0.19,-4.48 -0.38,-6.01 -4.55,1.4 -8.9,3.38 -13.11,5.75 -2.24,1.85 -4.86,3.52 -7.74,4.73 -0.83,0.71 -1.85,1.28 -2.75,1.92 -0.32,0.25 -0.58,0.57 -0.89,0.76 7.67,-0.38 15.15,-0.89 22.57,-1.4 0.9,-1.08 1.73,-2.24 2.75,-3.39 z m -104.1,8.05 c 0.32,0 0.64,0 0.96,0 -0.06,-0.12 -0.19,-0.31 -0.25,-0.38 -0.2,0.07 -0.46,0.26 -0.71,0.38 z m -49.36,-115.02 c -9.47,-3.01 -15.41,-8 -21.36,-13.3 0.06,0.32 0.06,0.63 0.06,0.95 v 21.23 c 2.82,1.54 5.5,3.46 8.25,5.19 1.09,-1.16 2.31,-2.44 3.84,-3.53 4.03,-2.94 8.06,-6.2 12.02,-9.71 -1.02,-0.26 -1.92,-0.51 -2.81,-0.83 z m -59.85,-12.28 c 1.53,-0.32 3.13,-0.7 4.98,-1.34 -2.43,-3.01 -4.53,-4.23 -5.88,-4.23 -0.32,0 -1.02,0.07 -1.91,0.65 0.89,1.53 1.78,3.19 2.81,4.92 z m -160.3,-19.44 c -2.11,6.84 -0.77,15.35 3.64,21.8 3.13,4.8 7.17,7.42 11.13,7.04 6.39,-0.51 12.34,-1.54 17.84,-3.13 -0.2,-0.19 -0.26,-0.45 -0.51,-0.7 -7.55,-9.41 -16.37,-16.63 -26.03,-21.75 z m -214.4,-6.39 c 1.34,-1.15 2.5,-2.17 3.9,-3.07 -2.37,-0.58 -4.6,-1.22 -6.84,-1.92 1.09,1.53 2.11,3.26 2.94,4.99 z m -37.15,26.22 c 4.22,3 8.51,6.01 12.73,8.88 0.7,0.51 1.4,0.9 2.17,1.41 0.06,0.06 0.13,0.12 0.32,0.12 2.75,-8.56 6.46,-16.88 11.25,-24.03 -0.89,-4.74 -3,-8.96 -5.88,-11.51 -0.32,-0.26 -0.51,-0.51 -0.7,-0.64 l -5.37,-4.61 c -5.69,9.66 -10.62,19.44 -14.52,30.38 z m 9.4,-67.21 c -2.3,0 -4.73,0.32 -7.28,1.02 l 0.7,0.83 -9.21,9.15 c -3.2,3.2 -6.46,6.46 -9.66,9.78 -3.45,3.59 -5.3,9.34 -5.04,15.35 0.25,6.2 2.68,11.96 6.45,15.28 1.22,0.96 2.24,2.11 3.33,3.2 l 0.7,0.7 c 7.74,-18.86 18.35,-34.91 29.41,-51.41 0.25,-0.32 0.39,-0.64 0.64,-0.89 -3.07,-2.05 -6.26,-3.01 -10.04,-3.01 z m -500.15,67.59 4.23,3.2 c 0.95,0.7 1.85,1.27 2.87,1.72 l 7.35,3.07 -1.85,3.26 c 6.52,4.41 14.07,2.82 18.16,-4.67 0.25,-0.57 0.57,-1.08 0.77,-1.66 -0.83,0 -1.6,0.2 -2.43,0.2 -8.82,0 -18.23,-2.05 -28.33,-6.01 -0.96,-0.46 -1.92,-0.9 -2.94,-1.41 0.71,0.83 1.47,1.53 2.17,2.3 z m -132.61,-7.16 c 5.31,3.26 11.77,4.66 19.05,3.77 l 3.58,-0.58 c 1.8,-3.58 3.46,-7.86 4.61,-13.36 l 2.37,-10.29 8.63,6 c 2.49,1.73 5.11,2.75 7.93,3.14 16.69,2.24 31.39,-1.02 43.16,-9.27 -9.47,-1.86 -18.03,-6.84 -27.88,-4.8 -14.33,2.88 -26.6,2.11 -40.22,5.24 -3.96,0.9 -8.06,2.18 -12.08,3.52 -2.18,6.21 -5.31,11.83 -9.15,16.63 z m 1072.04,102.62 c -0.06,0 -0.06,0.13 -0.13,0.2 -1.15,1.27 -2.36,2.48 -3.64,3.58 -0.13,0.63 -0.13,1.21 -0.2,1.85 0.71,-0.71 1.29,-1.54 1.99,-2.24 1.4,-1.6 3.13,-2.94 4.99,-4.03 -0.13,-0.32 -0.26,-0.51 -0.39,-0.77 -0.9,0.45 -1.73,0.96 -2.62,1.41 z m 7.61,-43.42 c -2.11,-1.34 -4.22,-2.81 -6.14,-4.34 -3.58,-2.81 -6.97,-5.37 -10.43,-6.27 -0.82,1.86 -2.04,3.65 -3.96,5.05 l -2.36,1.47 -2.43,-0.12 c -0.32,0 -0.71,0.06 -1.03,0.12 1.09,1.22 2.31,2.24 3.46,3.2 2.75,2.18 5.94,3.07 9.01,2.62 l 4.73,-0.64 2.37,4.03 c 2.94,4.93 5.44,9.34 7.48,13.43 2.17,-3 4.22,-6.46 5.76,-10.3 -2.62,-2.3 -4.8,-4.92 -6.46,-8.25 z m -70.4,-73.85 c -0.64,0.13 -1.34,0.39 -1.98,0.64 0.57,0.26 1.08,0.58 1.66,0.9 0.06,-0.57 0.25,-1.15 0.32,-1.54 z m -87.02,59.02 c -3.46,7.17 -8.57,12.53 -14.45,15.22 4.34,3.19 8.88,5.89 13.61,8.31 1.6,-0.7 3.13,-1.79 4.61,-3.26 6.58,-10.16 13.3,-15.02 20.78,-15.02 7.42,0 12.98,5.18 16.88,10.36 0.25,-1.22 0.51,-2.56 0.77,-3.91 1.15,-6.84 1.47,-13.81 1.02,-21.16 l -0.19,-3.84 3.13,-2.3 c 2.37,-1.73 4.03,-4.09 4.99,-6.97 l 0.38,-0.96 1.66,-2.24 c 0.52,-0.7 0.96,-1.47 1.54,-2.17 -3.96,0.19 -8.44,-0.64 -12.53,-1.6 -2.94,-0.7 -5.88,-1.41 -7.87,-1.41 -0.32,0 -0.51,0 -0.64,0 -0.32,0.77 -0.58,2.82 0.13,7.3 0.58,3.7 -0.51,7.6 -2.94,10.41 -2.24,2.63 -5.37,4.1 -8.57,4.1 -4.6,0 -9.53,-3.07 -10.61,-9.79 -0.32,-2.43 -0.84,-5.37 -0.97,-8.76 -2.29,1.6 -4.66,2.95 -7.22,4.16 1.15,7.67 0.07,15.92 -3.51,23.53 z m -19.25,1.73 c 2.37,-1.54 4.66,-4.29 6.46,-7.87 1.53,-3.32 2.55,-7.67 2.55,-12.08 -4.6,1.28 -9.39,2.36 -14.57,3.06 2.43,4.29 4.34,9.92 5.56,16.89 z m -129.29,-5.05 c -1.15,0 -2.43,-0.13 -3.58,-0.13 -6.91,7.03 -16.18,9.27 -25.07,5.63 l -24.61,-10.24 c -5.95,-2.43 -11.9,-7.73 -15.6,-14.45 -0.65,-0.38 -1.29,-0.83 -1.92,-1.34 -1.99,-1.6 -3.46,-3.45 -4.55,-5.5 -3.32,11.32 -7.79,21.29 -13.61,29.93 16.87,9.01 34.14,17.13 51.73,24.62 3.83,-2.95 8.37,-5.31 13.3,-7.23 12.02,-4.41 22.12,-8.95 30.68,-14.26 -2.48,-1.98 -4.72,-4.28 -6.77,-7.03 z m -96.81,-43.42 c -0.19,0.06 -0.32,0.19 -0.64,0.32 -3.13,2.24 -6.07,5.5 -8.63,9.4 3.77,9.33 3.33,18.99 -1.34,27.17 2.05,1.16 4.16,2.31 6.14,3.52 5.75,-8.37 10.23,-18.41 13.36,-30.37 -3.58,-2.56 -6.65,-5.95 -8.89,-10.04 z m 132.11,45.01 -2.37,5.63 c -2.49,6.07 -1.54,14.26 2.56,20.27 2.49,3.71 5.63,5.94 8.57,5.94 h 0.51 c 25.64,-1.78 42.2,-12.53 51.21,-33.43 -0.95,-0.77 -2.11,-1.48 -3.07,-2.11 -6.2,6.52 -15.22,9.71 -23.4,7.8 -10.55,-2.43 -19.82,-6.27 -28.26,-11.77 -1.79,2.82 -3.77,5.31 -5.75,7.67 z m 146.81,31.91 c -4.29,-8.37 -7.61,-10.74 -9.02,-10.74 -1.6,0 -4.92,2.37 -9.21,9.02 l -0.77,1.02 c 0,0.07 -0.06,0.07 -0.06,0.12 3.64,1.09 7.41,2.12 11.38,2.89 2.82,0.57 5.37,-0.39 7.68,-2.31 z m -6.02,16.69 c -1.4,0 -2.88,-0.12 -4.34,-0.39 -9.02,-1.72 -17.52,-4.34 -25.52,-7.86 -0.95,0.07 -1.85,0.13 -2.81,0.13 -10.42,0 -19.25,-6.52 -23.92,-16.75 -4.92,-4.16 -9.52,-8.7 -13.68,-13.62 -11.7,21.8 -31.84,33.89 -60.23,35.87 -8.38,0.7 -16.44,-3.9 -21.93,-12.22 -3.65,-5.37 -5.76,-11.89 -6.14,-18.22 -11.32,7.61 -23.91,12.85 -36.39,17.52 -0.57,0.19 -0.95,0.45 -1.46,0.58 59.33,23.14 121.74,37.79 184.15,46.55 0.12,-0.64 0.25,-1.22 0.32,-1.79 2.55,-10.17 8.82,-17.65 17.32,-20.78 1.6,-0.84 3.2,-1.41 4.93,-1.79 0.06,-0.58 0.13,-1.09 0.13,-1.61 0.19,-2.36 0.44,-5.3 1.4,-8.18 -0.12,-0.26 -0.19,-0.45 -0.38,-0.57 -3.39,1.98 -7.23,3.13 -11.45,3.13 z m 45.21,19.89 0.39,-1.73 0.95,-1.28 c 3.9,-5.18 7.1,-11.06 9.53,-17.58 l 1.34,-3.39 3.52,-1.02 c 4.8,-1.35 9.01,-3.01 12.91,-5.18 0,-0.13 0,-0.32 0,-0.51 -0.12,-5.18 0.84,-9.73 1.92,-14.2 1.48,-6.01 4.16,-11.19 7.8,-15.22 -2.94,-6.01 -5.18,-12.85 -6.39,-20.14 -0.9,-0.51 -1.79,-1.09 -2.56,-1.67 -5.56,-1.34 -10.61,-3.96 -15.15,-7.92 -2.75,0.96 -5.63,1.4 -8.44,1.4 -3.58,0 -6.91,-0.7 -10.1,-1.91 -0.51,1.15 -1.22,2.37 -1.92,3.39 -0.64,0.89 -1.28,1.85 -1.92,2.81 l -0.39,0.38 c -1.46,3.9 -3.77,7.42 -6.64,10.24 0.19,7.15 -0.32,14.06 -1.41,20.84 -1.15,6.71 -3.46,13.43 -6.91,19.05 0.83,1.92 1.92,3.58 3.26,4.73 l 4.29,3.78 -3.2,5.69 c -0.26,0.38 -0.38,0.64 -0.63,1.08 -0.52,1.09 -0.71,3.33 -0.84,5.31 -0.32,4.03 -0.77,9.59 -5.44,12.79 l -2.23,1.41 -2.43,-0.13 c -0.96,0 -1.86,0.32 -2.75,0.77 l -1.28,0.63 c -4.15,1.35 -7.22,5.25 -8.57,10.87 -0.06,0.07 -0.06,0.2 -0.06,0.26 12.27,1.54 24.62,2.88 36.83,4.03 3.13,-4.92 5.37,-10.87 6.52,-17.58 z m 58.82,1.53 c -0.57,0.13 -1.21,0.19 -1.91,0.19 -10.81,0 -20.15,-7.03 -24.87,-17.64 -2.95,1.4 -6.01,2.62 -9.15,3.64 -2.5,5.94 -5.56,11.51 -9.21,16.5 -1.08,5.3 -2.81,10.16 -4.85,14.57 17,1.41 33.94,2.37 50.7,3.07 0,-2.87 0.58,-5.69 1.53,-8.44 -1.27,-3.77 -2.04,-7.74 -2.24,-11.89 z m 1.22,-14.58 c 1.6,-15.15 -0.83,-18.22 -0.83,-18.29 -3.45,0.07 -10.8,5.25 -14.9,8.12 2.5,6.72 7.74,10.68 12.6,10.68 1.09,0 2.11,-0.19 3.13,-0.51 z m -13.23,-34.59 c -1.15,1.72 -1.92,3.77 -2.37,6.14 -0.26,0.38 -0.32,0.89 -0.38,1.4 2.17,-1.34 4.47,-2.61 6.77,-3.51 -1.4,-1.28 -2.81,-2.56 -4.02,-4.03 z m 8.56,-22.31 c 0.07,-0.78 0.13,-1.67 0.19,-2.37 0.13,-1.86 0.39,-3.96 0.71,-6.14 v -1.92 c -3.26,2.11 -6.52,3.2 -9.21,3.52 0.89,3.13 1.98,6.01 3.2,8.69 1.6,-0.76 3.38,-1.47 5.11,-1.78 z m -461.27,-75.58 c -1.79,1.02 -3.65,1.79 -5.69,2.36 -1.6,1.21 -3.2,2.11 -4.86,2.82 3.26,2.94 6.65,5.81 9.84,8.56 -0.05,-0.95 -0.31,-1.85 -0.31,-3 -0.13,-3.71 0.19,-7.29 1.02,-10.74 z m -552.33,73.08 c 2.24,4.47 5.7,7.42 9.6,8.51 l 4.34,1.02 0.32,1.92 c 0.52,-1.41 0.84,-2.94 1.28,-4.61 l 2.31,-10.29 8.69,6.01 c 2.11,1.47 4.35,2.43 6.65,2.75 4.1,0.57 8.12,0.76 11.96,0.57 0.44,-1.21 0.83,-2.55 1.28,-3.7 l 1.59,-4.99 3.84,-1.02 c 3.14,-0.77 5.57,-3.27 7.16,-7.61 1.6,-4.09 3.52,-8.51 5.76,-13.18 l 2.49,-4.92 5.31,1.02 c 1.98,0.39 3.83,0.32 5.56,-0.38 l 1.09,-0.32 c -0.26,-0.32 -0.51,-0.71 -0.83,-0.96 -6.65,-9.08 -7.74,-19.31 -5.63,-28.39 -15.73,17.91 -38.81,26.21 -65.22,22.63 -1.92,-0.25 -3.77,-0.7 -5.56,-1.21 -2.37,6.84 -5.56,12.53 -9.59,17.14 2.04,7.35 4.6,14.07 7.6,20.01 z m -48.33,-7.29 c -1.47,-0.19 -2.88,-0.45 -4.29,-0.83 l 7.55,17.58 c 0.32,0.84 0.7,1.54 1.09,2.31 1.53,1.02 2.68,2.3 3.7,3.84 0.64,1.08 1.02,2.36 1.35,3.64 5.24,5.82 12.46,9.4 22.89,11.25 2.42,0.45 4.73,0.64 6.84,0.64 2.49,0 7.99,0 13.3,-3.9 -1.09,-2.11 -1.98,-4.22 -2.56,-6.65 -5.82,-2.69 -10.87,-7.73 -14.19,-14.2 -2.69,-5.18 -4.93,-10.87 -6.91,-17 -8,3.96 -17.71,5.24 -28.77,3.32 z m 5.56,-18.29 c -1.02,1.61 -2.37,3.07 -3.71,4.29 0.13,0 0.32,0.12 0.58,0.12 2.55,0.46 5.11,0.71 7.42,0.71 1.78,0 4.53,0 7.8,-0.9 -4.29,-0.83 -8.38,-2.17 -12.09,-4.22 z m -223.79,78.97 c 2.43,5.12 5.94,7.8 10.42,7.8 6.2,0 12.91,-5.3 16.05,-12.4 l 4.54,-10.55 c -1.02,-0.45 -2.18,-0.96 -3.39,-1.73 -11,-7.54 -21.49,-0.71 -30.88,10.04 z m -29.8,41.95 c 1.09,-0.9 1.92,-1.86 2.69,-3.01 l -6.34,-4.22 c -1.02,1.6 -2.17,3.26 -3.13,4.86 l 0.32,0.19 c 1.98,1.47 4.16,2.18 6.46,2.18 z m 114.2,10.81 c -5.56,6.2 -13.24,10.03 -20.97,10.03 -2.62,0 -5.18,-0.45 -7.55,-1.27 -0.06,1.14 -0.19,2.23 -0.38,3.38 2.1,2.82 4.22,5.63 6.45,8.32 3.2,-0.9 6.33,-1.67 9.66,-2.5 v 0 c 0.39,-0.13 0.83,-0.19 1.28,-0.25 3.39,-0.83 6.9,-1.67 10.61,-2.43 0.83,-0.13 1.66,-0.39 2.49,-0.51 5.69,-1.16 11.71,-2.37 17.91,-3.33 -7.48,-2.68 -14,-6.46 -19.5,-11.44 z m 76.41,-68.94 c 0.96,-0.57 1.85,-1.14 2.94,-1.53 4.09,-1.47 7.93,-2.36 11.57,-3.07 -5.37,-1.53 -10.8,-3.39 -16.18,-5.88 0.77,3.45 1.29,6.84 1.67,10.48 z m -79.23,44 0.32,-0.7 1.15,1.53 15.99,9.52 c 2.3,1.41 4.54,2.11 6.72,2.11 6.71,0 11.89,-6.39 13.36,-15.91 -5.69,-0.07 -11.26,-1.29 -16.5,-3.65 -6.78,4.22 -14,6.4 -21.74,6.4 -0.12,0 -0.25,0 -0.44,0 z m 101.29,-14.39 c -2.75,-2.11 -5.56,-2.17 -8.7,-0.45 l -4.86,2.56 c 6.14,1.73 12.47,3.26 18.93,4.73 1.98,0.45 3.83,0.32 5.5,-0.19 -3.65,-1.92 -7.29,-3.9 -10.87,-6.65 z m 22.44,-11.06 c 0.07,-0.77 0.19,-2.3 0.13,-4.29 -3.83,1.99 -8.25,3.39 -13.56,4.1 -0.06,0.06 -0.25,0.06 -0.32,0.06 3.9,2.81 8,4.99 12.15,6.71 0.77,-2.11 1.28,-4.35 1.6,-6.58 z m -73.08,28.9 c -2.63,9.59 -8.38,16.94 -15.73,20.65 0.38,0.32 0.82,0.7 1.21,1.09 3.33,0.51 6.2,0.7 8.76,0.77 4.79,0 9.46,-1.73 14.07,-5.18 l 3.83,-3.01 2.05,1.28 c 0.9,-0.96 1.79,-1.79 2.5,-2.5 1.72,-1.72 2.36,-2.42 0,-9.39 -1.03,-2.82 -1.67,-5.44 -2.12,-8.25 -3.77,2.87 -8.18,4.6 -12.98,4.6 -0.57,0 -1.02,-0.06 -1.59,-0.06 z m 103.39,14.7 c 0.26,-2.17 1.02,-13.23 -7.74,-15.34 l -3.58,-0.83 c -4.86,-1.09 -9.72,-2.24 -14.58,-3.58 -4.8,5.11 -11.12,8.57 -18.86,8.57 -1.85,0 -3.84,-0.26 -5.82,-0.64 -4.67,-1.02 -9.21,-2.18 -13.68,-3.33 1.4,5.37 1.85,12.34 0.57,18.22 1.03,-0.38 1.99,-0.89 3.01,-1.46 l 3.45,-2.05 3.52,1.98 c 5.18,2.88 10.42,5.11 15.86,7.03 0.38,-0.06 0.7,-0.06 1.09,-0.06 1.4,-0.06 2.8,-0.13 4.28,-0.19 9.84,-0.45 19.95,-0.64 30.24,-0.7 1.09,-2.43 1.85,-4.93 2.24,-7.62 z m -180.7,-3.96 c 2.05,4.41 4.92,6.65 8.51,6.65 5.11,0 10.86,-4.34 13.49,-10.36 l -7.55,-12.08 c -9.78,-1.48 -18.67,-4.6 -26.34,-9.27 z m -59.14,0.19 h 0.13 c 2.87,0 5.43,1.15 7.41,3.01 1.47,0.25 3,0.57 4.6,0.83 2.56,0.51 5.38,1.15 8.51,1.41 l 3.58,0.44 1.92,2.56 c 1.34,1.98 2.56,3.39 3.83,4.67 5.18,5.24 10.94,6.2 15.8,2.56 l 0.25,-0.2 c 0.13,-3.7 0,-7.54 -0.38,-11.7 l -3.2,-32.28 c -1.47,-1.09 -2.94,-2.37 -4.22,-3.53 -6.14,7.36 -14.83,11.97 -23.59,11.97 -3.32,0 -6.33,-0.65 -9.21,-1.8 0,0.32 0,0.64 0,0.96 -0.51,8.12 -3.07,15.35 -6.91,21.17 0.52,0 0.96,-0.07 1.48,-0.07 z m 26.6,34.66 c 1.65,1.28 3.51,1.92 5.37,1.92 3.13,0 6.26,-1.73 8.82,-4.67 -7.23,0.25 -14.77,-2.75 -20.98,-9.02 -1.08,-1.21 -2.23,-2.36 -3.38,-3.84 -2.43,-0.31 -4.54,-0.76 -6.52,-1.21 -0.83,1.99 -2.18,3.58 -3.77,4.8 0.76,4.22 1.59,8.38 2.55,12.66 1.28,0.32 2.56,0.7 3.97,0.7 2.17,0 4.35,-0.64 6.26,-1.72 l 3.9,-2.24 z m -49.05,-51.47 1.98,1.4 c -0.19,-1.15 -0.51,-2.1 -0.76,-2.88 -0.45,0.39 -0.77,0.97 -1.22,1.48 z m 10.36,-14.64 c 1.28,1.91 2.37,4.09 3.39,6.32 0.07,-3.51 -0.13,-7.1 -0.39,-10.87 -1.02,1.6 -2.04,3.07 -3,4.55 z m 212.99,-78.46 c -1.03,-0.19 -2.05,-0.32 -3.13,-0.77 -5.63,5.76 -12.92,9.08 -20.21,9.08 -1.79,0 -3.52,-0.19 -5.18,-0.64 -5.24,4.28 -11.57,7.54 -18.73,9.66 0.44,0.76 0.89,1.6 1.34,2.36 1.02,0.51 1.98,1.15 3.01,1.85 12.34,9.15 26.28,12.22 41.11,15.54 l 4.09,0.9 c 0.58,0.25 0.96,0.44 1.54,0.58 2.11,-2.11 4.15,-4.74 6.13,-8.44 0.45,-1.54 0.97,-3.14 1.35,-4.93 l 3.71,-19.5 c -5.57,-1.4 -10.56,-3.26 -15.03,-5.69 z m 109.92,34.46 c -2.89,-0.06 -5.83,-0.32 -8.83,-0.76 -1.47,-0.2 -2.94,-0.58 -4.35,-0.9 -1.22,3.33 -2.68,6.27 -4.35,9.02 2.18,1.27 4.42,1.98 6.59,1.98 4.73,0 8.44,-3.01 10.48,-8.18 0.13,-0.39 0.32,-0.78 0.46,-1.16 z m 72.95,46.36 c -1.6,-1.53 -3.07,-3.2 -4.47,-5.18 -1.8,0.58 -3.77,0.83 -5.95,0.83 v 0 c -2.75,-0.06 -5.5,-0.57 -7.87,-0.96 -1.98,-0.45 -3.84,-0.7 -5.3,-0.7 -1.02,0 -2.69,0 -3.52,7.42 -0.71,5.94 -4.99,10.1 -10.42,10.1 -3.14,0 -6.27,-1.41 -8.57,-4.03 -2.37,-2.75 -3.58,-6.52 -3.13,-10.42 1.53,-13.43 9.27,-20.72 15.86,-25.52 2.87,-2.1 6.26,-3.19 9.9,-3.19 3.14,0 6.01,0.7 8.51,1.41 1.79,0.44 3.45,0.95 4.67,0.95 0.64,0 0.89,-0.12 1.47,-0.7 1.6,-1.66 3.52,-2.75 5.49,-3.19 -3.19,-4.87 -6,-10.17 -8.18,-15.99 -3.96,-3.84 -7.29,-8.89 -9.27,-14.77 -0.51,-1.41 -0.83,-2.75 -1.21,-4.15 -9.21,10.86 -21.36,17.83 -35.36,20.52 -0.9,2.56 -1.86,5.12 -2.82,7.54 -4.22,10.74 -13.11,17.14 -23.72,17.14 -5.89,0 -11.38,-1.98 -15.92,-5.5 -8.25,6.33 -18.99,8.63 -31.65,6.33 -10.43,-1.79 -18.74,-5.11 -25.39,-10.36 -1.66,2.62 -3.26,4.86 -4.92,7.03 1.66,4.8 2.3,10.3 1.6,16.18 -0.38,3.26 -1.15,6.46 -2.24,9.6 3.45,0.83 6.84,1.65 10.3,2.55 l 3.7,0.9 c 12.92,3 20.4,15.4 18.54,30.63 -0.19,1.97 -0.63,3.96 -1.14,5.94 3.57,0 7.1,0 10.8,0 2.11,0 4.28,0.07 6.46,0.07 4.29,0.06 8.57,0.12 12.92,0.25 2.49,0.13 4.85,0.19 7.35,0.32 0.25,0 0.51,0 0.76,0 0.39,0 0.77,0 1.09,0 2.31,0.06 4.48,0.19 6.65,0.26 2.43,-0.9 4.99,-1.86 7.36,-2.88 0.06,0 0.06,0 0.06,0 28.01,-11.13 53.71,-24.11 77.56,-38.43 z m 170.53,-144.06 c -0.58,1.85 -0.89,3.71 -1.15,5.62 3.39,-3.13 6.72,-6.32 10.04,-9.39 -0.77,-1.6 -1.47,-3.33 -2.11,-4.93 -3.96,1.41 -5.95,5.88 -6.78,8.7 z m -206.65,63.24 c -0.46,0.06 -0.9,0.06 -1.35,0.06 -1.15,2.75 -2.3,5.31 -3.2,7.93 -0.63,1.6 -1.34,3.07 -2.17,4.41 3.58,-2.3 6.84,-5.12 9.78,-8.5 -1.09,-1.22 -2.11,-2.5 -3.06,-3.9 z m 59.01,42.97 c -4.22,0 -8.57,-0.51 -13.04,-1.54 5.11,7.29 11.83,14.07 20.01,20.27 33.95,-23.21 63.82,-48.53 90.73,-73.02 -10.8,-2.3 -21.87,-7.48 -32.79,-15.41 -0.71,-0.26 -1.48,-0.45 -1.99,-0.7 -1.98,1.21 -4.09,1.72 -6.2,1.6 -7.42,43.99 -27.5,68.8 -56.72,68.8 z m -340.8,-17.08 c -3.14,3.2 -5.95,7.17 -8.76,11.19 3.64,-2.04 6.9,-6.13 8.76,-11.19 z m 13.81,3.39 c -4.35,13.88 -15.73,23.54 -27.75,23.54 -2.63,0 -5.18,-0.39 -7.61,-1.22 -2.5,1.47 -5.12,2.05 -8.18,1.22 l 6.71,8.82 c 12.21,16.31 31.84,18.86 42.58,19.05 5.63,0 11.26,-2.11 16.63,-6.2 l 3.9,-2.94 4.03,2.49 c 9.33,5.5 20.2,5.25 30.75,-0.96 l 3.46,-2.04 3.51,1.98 c 0.45,0.19 0.89,0.45 1.34,0.7 1.09,-2.81 1.92,-5.75 2.11,-8.69 0.77,-12.67 -1.34,-23.91 -6.14,-33.83 -1.98,-0.32 -4.09,0.13 -6.26,1.21 l -13.56,7.42 3.26,-15.02 c 0.83,-4.22 1.54,-8.31 1.92,-12.41 l 0.07,-0.76 c -0.19,-0.2 -0.32,-0.45 -0.51,-0.58 l -3.91,-3.51 2.18,-4.74 c 0,-0.06 0,-0.06 0,-0.06 -16.88,4.09 -31.21,7.28 -46.87,14 0.19,4.03 -0.32,8.31 -1.66,12.53 z m 66.56,-31.2 c -0.45,1.15 -1.09,2.49 -1.73,3.77 -0.38,0.77 -0.83,1.6 -1.21,2.37 0.25,0.32 0.44,0.63 0.77,0.89 5.87,-1.21 11.12,-3.13 15.6,-5.95 -1.09,-1.27 -1.99,-2.68 -2.75,-4.21 -3.71,1.15 -7.23,2.17 -10.68,3.13 z m 373.8,-70.98 c -6.72,0 -13.62,-1.08 -20.65,-3.19 -15.22,4.22 -27.62,11.19 -45.08,13.17 -0.58,0.07 -1.28,0 -1.98,0.07 -8.19,24.67 -21.36,40.98 -38.69,47.44 -0.64,4.22 -1.92,8.18 -3.77,11.64 -5.18,9.2 -13.62,14.58 -23.02,14.58 -3.96,0 -7.74,-1.03 -11.45,-2.75 0,0.06 0,0.06 0,0.06 1.09,3.13 2.75,5.63 5.05,7.16 l 2.31,1.54 0.64,2.81 c 0.25,1.21 0.7,2.49 1.09,3.64 0.57,0.45 1.15,0.7 1.78,1.02 7.42,3.01 14.2,4.55 20.4,4.55 34.91,0 42.91,-51.48 44.82,-73.66 l 0.39,-5.57 4.54,-0.7 c 3.13,-4.1 7.29,-4.92 10.04,-4.92 5.82,0 11.44,3.7 16.24,7.1 6.97,4.91 15.22,7.41 25.19,7.41 10.42,0 21.23,-2.56 31.78,-5.05 -1.34,-7.16 -0.83,-14.71 1.09,-20.91 0.95,-3.32 2.43,-6.2 4.21,-8.76 -1.08,-0.25 -2.04,-0.51 -3.06,-0.7 -6.84,2.62 -14.2,4.02 -21.87,4.02 z m 539.92,13.69 c -0.51,-0.7 -0.9,-1.41 -1.41,-2.18 -3.77,-0.57 -7.23,-1.98 -10.36,-4.09 -5.31,0.71 -10.8,-0.44 -15.72,-3.38 -7.17,1.02 -14.71,-0.84 -21.17,-5.06 l -0.77,-0.64 c -0.25,-0.19 -0.51,-0.45 -0.7,-0.7 -0.06,0.64 -0.26,1.22 -0.26,1.73 2.44,3.77 5.89,6.64 9.34,8.05 l 27.75,11.19 c 1.28,0.58 2.62,0.83 3.9,0.83 4.22,0 7.48,-3.26 9.4,-5.75 z m 13.87,11.83 c -1.27,-0.58 -2.42,-1.15 -3.64,-1.85 -7.68,9.07 -18.54,12.33 -28.84,8.11 l -27.81,-11.19 c -3.26,-1.34 -6.46,-3.39 -9.27,-5.88 -0.45,0.52 -0.7,1.03 -1.09,1.6 -5.62,7.93 -14.13,12.72 -23.98,13.17 -11.25,0.58 -22.44,1.22 -33.7,1.22 -1.08,0 -2.11,-0.07 -3.13,-0.07 1.79,2.88 3.2,5.95 4.54,8.76 0.19,0.32 0.39,0.83 0.51,1.22 l 2.05,-1.09 v 5.12 c 1.85,3.51 3.96,6.45 6.9,7.8 3.2,1.47 6.53,2.88 9.91,4.22 4.74,1.92 9.47,3.89 14.26,6.2 4.35,2.17 9.66,3.07 17.53,3.07 2.62,0 5.3,-0.13 7.79,-0.2 4.42,-0.12 8.77,-0.25 12.98,-0.06 6.21,0.38 10.88,5.88 10.62,12.86 -0.06,3.45 -1.28,6.39 -3.32,8.5 0.19,0.13 0.57,0.25 0.76,0.32 5.37,-4.93 9.91,-10.55 13.56,-17.33 l 4.09,-7.42 6.52,5.25 c 8.38,6.45 17.91,10.99 29.16,13.55 3.83,0.9 8.7,-1.6 11.64,-5.94 l 2.94,-4.29 c -5.18,-11.06 -9.02,-23.34 -11.7,-36.7 -3.45,-2.3 -6.59,-5.3 -9.28,-8.95 z m 120.6,6.84 c -0.39,0.96 -0.9,1.85 -1.34,2.75 2.68,0.58 5.24,1.66 7.54,2.62 0.19,0.19 0.51,0.25 0.76,0.39 -2.61,-1.54 -4.98,-3.46 -6.96,-5.76 z m -42.52,201.48 c -0.32,0 -0.51,-0.06 -0.64,-0.06 0,0.06 0.06,0.12 0.13,0.25 0.12,-0.13 0.25,-0.13 0.51,-0.19 z m -799.91,-35.75 c 6.71,0.58 13.37,1.16 20.14,1.8 29.35,2.81 58.51,6.45 87.6,11.12 0.13,0 0.26,0 0.38,0.07 1.54,0.19 3.14,0.38 4.67,0.7 -17.83,-14.71 -26.15,-28.52 -22.44,-39.77 0.06,-0.07 0.13,-0.19 0.19,-0.26 h -0.06 l 7.8,-23.14 c 11.96,-35.56 140.67,-32.62 287.48,6.33 26.15,6.96 52.05,14.76 77.43,23.52 46.23,-15.21 119.57,-21.22 206.09,-16.23 -109.98,-34.92 -198.67,-90.93 -267.73,-168.55 -24.23,-27.31 -45.91,-40.67 -66.18,-40.67 -35.1,0 -74.29,37.66 -124.04,85.43 -54.48,52.11 -120.4,115.4 -211.65,159.65 0.13,0 0.26,0 0.32,0 z m 74.56,-188.04 c -1.47,6.39 -4.35,11.89 -8.25,16.04 -0.77,5.31 -2.68,10.3 -5.43,14.64 0.12,0.39 0.19,0.97 0.31,1.48 11.58,-6.4 19.25,-18.93 24.3,-32.74 -2.37,-0.2 -4.79,-0.39 -7.22,-0.77 -1.22,0.45 -2.43,0.96 -3.71,1.35 z m 521.95,-14.14 c -0.51,1.22 -1.15,2.37 -1.79,3.46 -1.34,2.3 -2.88,4.79 -4.48,7.09 -0.57,3.33 -1.15,6.59 -1.6,9.91 1.67,0.07 3.2,0.07 4.86,0.07 11,0 21.87,-0.51 32.94,-1.16 6.96,-0.38 11.06,-4.02 13.16,-7.15 1.35,-1.99 2.43,-4.23 3.07,-6.59 -0.83,-1.92 -1.4,-3.97 -1.85,-6.08 -14.77,0.77 -29.92,2.94 -44.31,0.45 z m 218.48,26.35 c -7.09,0 -13.36,-3.58 -18.34,-8.51 -1.34,-0.32 -2.75,-0.57 -4.09,-0.83 -5.18,6.84 -10.11,12.72 -14.91,18.03 8.19,5.44 15.67,12.34 22.45,20.59 1.09,1.35 1.98,2.75 2.94,4.22 13.11,-7.03 22.51,-18.41 28.26,-34.14 -2.24,-0.45 -4.54,-0.96 -6.9,-1.54 -3.01,1.41 -6.15,2.18 -9.41,2.18 z m 178.53,103.2 c -1.98,-0.77 -3.84,-1.54 -5.82,-2.17 -0.12,0 -0.32,-0.07 -0.38,-0.07 -1.85,-0.51 -3.65,-1.02 -5.38,-1.34 -0.25,-0.13 -0.57,-0.2 -0.82,-0.2 -3.07,7.55 -7.48,14.14 -12.79,19.32 0.77,2.04 1.85,4.15 3.2,5.81 0.89,0 1.72,0 2.68,0.13 0.07,-0.13 0.07,-0.25 0.07,-0.45 l 0.63,-1.6 c 2.18,-4.09 6.08,-7.54 11,-10.03 3.39,-3.2 6.78,-5.95 10.11,-8.25 -0.52,-0.32 -0.97,-0.51 -1.41,-0.64 -0.32,-0.13 -0.7,-0.39 -1.09,-0.51 z m 53.2,18.35 c -0.64,0 -1.28,0 -1.92,-0.06 -1.34,-0.07 -2.62,-0.07 -3.96,-0.2 -0.71,-0.12 -1.41,-0.32 -2.12,-0.44 -1.14,-0.13 -2.36,-0.32 -3.58,-0.65 -0.63,-0.12 -1.34,-0.25 -2.04,-0.38 -1.22,-0.38 -2.36,-0.64 -3.58,-1.08 -0.58,-0.13 -1.15,-0.32 -1.79,-0.58 -1.34,-0.38 -2.56,-0.9 -3.84,-1.34 -0.38,-0.13 -0.96,-0.39 -1.47,-0.51 -1.41,-0.58 -2.75,-1.15 -4.16,-1.73 -0.31,-0.13 -0.63,-0.26 -0.89,-0.45 -1.98,-0.83 -3.77,-1.72 -5.75,-2.56 -0.32,0.13 -0.71,0.26 -1.03,0.52 -1.6,7.73 -5.18,14.89 -10.55,20.52 -6.07,6.52 -13.81,10.16 -21.29,10.16 -2.69,0 -7.1,-0.44 -11.89,-3.45 -1.73,0.58 -3.2,1.35 -4.22,2.5 -2.81,3 -5.56,6.13 -8.31,9.2 -0.13,0.07 -0.2,0.2 -0.26,0.26 0.32,0.64 0.77,1.22 1.15,1.73 2.24,2.49 4.67,3.83 7.48,3.83 1.09,0 2.17,-0.25 3.65,-0.7 3.13,-0.96 6.26,-2.11 10.48,-3.77 l 6.52,-2.62 2.63,6.39 0.89,1.98 c 0.26,0.71 0.51,1.41 0.83,2.11 3.65,0.07 7.29,0.07 10.81,0.07 1.02,-1.54 1.85,-3.13 2.75,-4.67 l 3.64,-4.67 3.46,-0.06 c 5.24,0 10.29,-2.12 16.05,-6.65 l 2.55,-1.6 7.42,0.32 3.2,5.95 c 1.92,3.64 3.77,7.16 5.81,10.48 0,0.06 0.07,0.06 0.2,0.13 8.5,-0.19 16.88,-0.58 25.32,-0.9 4.73,-3.89 9.02,-8.5 13.36,-14.38 l 3.2,-4.28 4.99,1.85 c 3.51,1.34 7.86,0.9 11.82,-0.58 2.05,-1.27 4.04,-2.62 6.08,-3.7 0.38,-0.39 0.71,-0.65 1.02,-1.09 l 0.83,-0.83 c 0.9,-0.77 1.73,-1.54 2.69,-2.31 -1.15,0.13 -2.37,0.32 -3.45,0.32 -11.19,0 -20.91,-7.54 -26.8,-20.52 -2.17,0.76 -4.15,1.54 -6.07,2.11 -2.75,1.02 -5.63,1.53 -8.5,1.6 -4.48,2.36 -9.66,3.84 -15.47,4.54 -1.99,0.19 -3.97,0.25 -5.89,0.19 z m -35.93,160.49 c 1.15,3.14 3.77,4.03 14.57,4.86 3.39,0.25 7.1,0.45 11,1.22 -0.83,-0.51 -1.6,-1.16 -2.36,-1.6 -23.15,-15.54 -49.94,-26.22 -76.92,-35.49 -23.28,-7.99 -47,-14.9 -70.98,-21.1 -10.61,1.73 -20.85,3.58 -30.88,5.5 0.25,0.06 0.51,0.12 0.7,0.19 8.82,1.98 18.67,3.39 31.08,4.48 15.54,-0.9 26.34,4.86 35.68,9.84 7.73,4.03 13.68,7.23 21.86,6.72 2.37,-0.39 4.54,-0.65 6.78,-0.65 13.74,0 22.38,7.49 28.71,12.92 6.84,5.88 9.84,8 16.43,6.01 l 10.42,-2.94 z m 85.87,-34.59 c 4.41,2.87 9.33,6.33 14.38,9.97 7.74,-5.37 13.24,-10.8 15.86,-16.11 -8.5,-8.95 -26.34,-13.62 -38.43,-16.56 -14.64,-3.45 -30.12,-4.86 -45.65,-5.5 18.86,7.86 37.21,16.94 53.84,28.2 z m 236.65,-78.77 c -24.94,-1.41 -59.15,-0.2 -99.88,1.53 -55.12,5.11 -121.1,11.12 -193.36,13.17 2.75,0 5.44,-0.06 8.06,-0.06 3.7,0.06 7.35,0.12 11,0.19 0.7,0.06 1.27,0.06 1.97,0.06 3.14,0.07 6.21,0.26 9.28,0.45 0.7,0 1.4,0.06 2.11,0.06 3.45,0.19 7.03,0.39 10.55,0.7 0.19,0 0.32,0 0.39,0 3.83,0.27 7.73,0.71 11.5,1.16 v 0 c 8.83,1.08 17.4,2.42 25.84,4.47 1.4,0.26 2.8,0.7 4.28,0.96 0.25,0.13 0.64,0.2 0.89,0.32 0.96,0.19 1.79,0.39 2.62,0.64 0.51,0.13 0.9,0.19 1.35,0.32 v 0 c 18.28,4.86 40.41,12.98 43.09,28.26 l 3.9,22.83 v 0 c 0,0.06 0.07,0.13 0.07,0.25 0.26,2.05 0.19,4.04 -0.2,6.14 -2.29,1.35 -4.53,2.69 -6.9,3.78 -8.06,4.02 -13.68,10.93 -16.94,18.79 -3.77,2.05 -7.55,3.97 -11.26,6.01 -4.02,0.9 -7.93,2.31 -11,4.61 -3.45,2.56 -7.03,4.8 -10.8,6.84 -2.5,0.77 -4.99,1.54 -7.67,2.12 -2.94,0.56 -5.69,1.65 -8.38,2.93 -6.84,1.98 -13.43,4.48 -20.02,7.68 -3.32,1.6 -6.45,4.22 -9.14,7.16 5.56,3.71 10.49,6.84 16.12,7.92 l 5.81,1.09 1.54,3.01 c 67.07,-34.66 140.22,-79.03 217.08,-138.69 7.42,-5.75 13.3,-10.61 18.1,-14.7 z m 42.52,-17.4 v 0.2 c 0,0.38 0,0.95 0,1.4 0,0.13 -0.13,0.19 -0.13,0.19 0,0.51 -0.07,1.02 -0.19,1.6 0,0 0,0 0,0.07 -2.31,9.65 -16.76,24.81 -45.78,47.37 -73.15,56.72 -143.23,100.01 -207.82,134.28 2.82,1.16 5.7,2.56 8.51,4.47 17.77,3.78 27.69,16.95 35.62,27.69 l 3.13,3.97 -0.84,5.17 c -0.38,1.67 -0.51,3.01 -0.51,3.91 h 0.39 3.26 v 0 c 13.43,0 19.18,5.94 21.55,12.21 12.91,13.75 19.5,28.2 21.16,46.61 3.07,8.06 2.88,18.1 2.56,27.88 -0.07,3.2 -0.19,7.61 -0.07,10.61 l 4.99,1.41 -1.02,9.91 c -0.51,5.56 -0.06,9.09 0.45,12.86 1.02,8.12 1.47,15.08 -3.39,28.19 l -1.09,5.31 c -0.64,3.2 -1.02,5.5 -1.28,7.03 0,0.26 0,0.46 0,0.58 0,15.09 -4.73,29.92 -13.75,44.31 6.33,7.16 10.68,15.6 10.68,25.32 v 38.18 c 0,24.99 -32.48,47.69 -84.91,63.94 48.4,28.58 75.64,60.68 75.64,94.31 0,279.62 -358.64,506.22 -801.05,506.22 -442.35,0 -800.99,-226.6 -800.99,-506.22 0,-33.57 26.98,-65.61 75.19,-94.06 -36.96,-15.22 -58.89,-34.14 -58.89,-54.8 v -38.04 c 0,-5.31 1.47,-10.49 4.22,-15.41 -0.58,0.32 -1.15,0.77 -1.72,1.15 -19.63,-20.53 -29.93,-42.08 -30.06,-64.39 -0.13,-1.79 -0.64,-7.86 -0.89,-16.81 -0.13,-4.48 0.7,-10.04 1.53,-16.05 0.52,-3.84 1.41,-10.1 1.54,-14.2 -1.29,-0.89 -2.37,-1.98 -3.33,-3.26 -5.82,-7.74 -2.94,-18.42 3.07,-38.17 0.96,-3.07 2.24,-7.29 3.01,-10.3 -0.46,-1.21 -0.77,-2.87 -0.77,-4.73 0,-2.49 0,-7.61 11.12,-27.75 6.27,-11.25 9.91,-17.2 13.3,-20.21 9.34,-12.21 16.44,-20.2 22.64,-25.89 v 0 c -146.17,-86.96 -241.7,-215.81 -193.75,-218.17 0.33,0 0.58,-0.06 0.9,-0.06 0.13,0 0.26,0 0.32,0 0.32,0 0.58,0 0.83,0.06 4.1,0 9.08,0.83 15.16,2.5 0.19,0 0.32,0.06 0.38,0.06 2.11,0.64 4.35,1.28 6.59,2.11 6.26,2.04 12.33,4.16 18.54,6.2 1.98,0.58 3.9,1.22 5.82,1.79 4.22,1.35 8.38,2.62 12.53,3.97 2.17,0.7 4.35,1.34 6.58,2.04 4.03,1.22 8.06,2.37 12.09,3.52 1.99,0.58 3.96,1.21 5.95,1.72 2.24,0.58 4.48,1.22 6.71,1.86 h 0.13 c 6.07,-0.83 12.92,-0.51 19.76,0.26 0.06,-3.26 0.12,-6.59 0,-10.24 l -0.13,-2.62 1.66,-2.11 c 3.84,-4.79 7.87,-9.46 12.47,-14.57 l 4.99,-5.37 c -5.95,-0.13 -12.09,-1.09 -17.59,-1.86 l -13.17,-2.05 4.93,-8.82 c 12.21,-22.13 23.65,-42.97 42.71,-60.42 l 2.94,-2.82 c 12.66,-57.22 40.41,-114.26 90.16,-156.01 49.75,-41.57 115.22,-89.39 223.41,-126.86 128.2,-44.44 289.33,-65.93 492.79,-65.93 351.3,0 598.24,79.54 733.98,236.46 65.35,75.39 74.05,133.06 77.31,196.1 26.03,-2.42 49.55,-4.73 70.21,-6.33 0.12,0 0.25,0 0.51,-0.06 2.55,-0.13 5.11,-0.45 7.73,-0.57 0.13,0 0.2,-0.07 0.26,-0.07 2.49,-0.13 4.8,-0.32 7.09,-0.45 0.78,-0.12 1.48,-0.12 2.18,-0.19 1.6,-0.06 3.07,-0.19 4.54,-0.25 0.83,0 1.67,-0.13 2.5,-0.19 1.78,-0.07 3.58,-0.14 5.3,-0.26 1.02,-0.07 2.17,-0.13 3.2,-0.13 1.02,-0.07 2.05,-0.07 3.07,-0.13 1.02,0 2.11,-0.13 3.13,-0.13 0.77,-0.06 1.54,-0.06 2.43,-0.06 1.92,-0.06 3.77,-0.06 5.56,-0.13 0.58,0 1.22,0 1.8,0 0.38,0 0.83,0 1.27,0 0.9,0 1.67,0 2.56,0 0.07,0 0.13,0 0.13,0 1.34,0.07 2.56,0.07 3.77,0.07 0.06,0 0.06,0 0.13,0 10.17,0.31 18.03,1.28 23.6,3.26 h 0.12 c 0.64,0.26 1.28,0.58 1.85,0.77 0.07,0 0.07,0 0.07,0.06 3.65,1.6 5.88,3.77 6.65,6.58 v 0.13 c 0.06,0.32 0.13,0.83 0.26,1.28" /><path
         id="path16"
         style="fill:#100f0d;fill-opacity:1;fill-rule:nonzero;stroke:none"
         d="M 358.473,2415.95 2355.61,418.801 4352.7,2415.95 2355.57,4413.1 Z M 2355.61,267.379 207.043,2415.95 2355.57,4564.53 4504.13,2415.95 2355.61,267.379" /><path
         id="path18"
         style="fill:#100f0d;fill-opacity:1;fill-rule:nonzero;stroke:none"
         d="M 571.77,2416.03 2355.61,632.09 4139.34,2416.03 2355.57,4199.8 Z M 2355.61,556.379 496.055,2416.03 2355.57,4275.51 4215.05,2416.03 2355.61,556.379" /><path
         id="path20"
         style="fill:#100f0d;fill-opacity:1;fill-rule:nonzero;stroke:none"
         d="m 4191.44,397.082 -120.48,-24.531 c 0,0 -205.21,490.75 -747.26,555.441 l 167.31,207.448 388.09,-158.37 -214.11,-38.699 c 0,0 472.9,-177.672 526.45,-541.289" /><path
         id="path22"
         style="fill:#100f0d;fill-opacity:1;fill-rule:nonzero;stroke:none"
         d="m 519.734,397.082 120.481,-24.531 c 0,0 205.207,490.75 747.265,555.441 L 1220.17,1135.44 832.055,977.07 1046.19,938.371 c 0,0 -472.901,-177.672 -526.456,-541.289" /><path
         id="path24"
         style="fill:#100f0d;fill-opacity:1;fill-rule:nonzero;stroke:none"
         d="m 0,809.762 51.3008,-87 c 0,0 202.9962,127.16 414.9062,84.769 l 26.762,89.16 c 0,0 -285.524,40.219 -492.969,-86.929" /><path
         id="path26"
         style="fill:#ffffff;fill-opacity:1;fill-rule:nonzero;stroke:none"
         d="m 546.527,1277.45 c 0,0 -231.964,-90.43 -493.7223,-429.489 0,0 196.2933,72.5 440.1643,48.73 0,0 -71.34,-215.8 23.808,-447.8 0,0 107.082,340.808 529.413,489.48 l -215.612,34.231" /><path
         id="path28"
         style="fill:#100f0d;fill-opacity:1;fill-rule:nonzero;stroke:none"
         d="M 518.945,396.609 500.27,442.121 C 420.098,637.609 454.293,819.512 469.914,880.77 242.773,897.902 60.8633,831.891 58.9922,831.219 L 0.722656,809.699 38.6758,858.871 C 300.457,1197.95 530.379,1290.31 540.039,1294.07 l 12.977,-33.25 c -2.168,-0.84 -210.137,-84.9 -450.578,-379.058 76.027,20.277 221.96,49.308 392.269,32.687 l 22.168,-2.168 -6.945,-21.172 c -0.664,-1.968 -59.539,-186.218 7.511,-392.269 41.954,92.871 166.493,307.371 460.664,432.269 l -150.316,23.871 5.582,35.239 285.239,-45.27 -66.49,-23.418 C 643.793,777.789 534.848,446.84 533.793,443.52 l -14.848,-46.911" /><path
         id="path30"
         style="fill:#100f0d;fill-opacity:1;fill-rule:nonzero;stroke:none"
         d="m 4711.17,809.762 -51.32,-87 c 0,0 -202.98,127.16 -414.9,84.769 l -26.78,89.16 c 0,0 285.53,40.219 493,-86.929" /><path
         id="path32"
         style="fill:#ffffff;fill-opacity:1;fill-rule:nonzero;stroke:none"
         d="m 4164.67,1277.45 c 0,0 233.38,-90.43 495.14,-429.489 0,0 -197.75,72.5 -441.64,48.73 0,0 71.39,-215.8 -23.8,-447.8 0,0 -107.06,340.808 -529.38,489.48 l 209.7,34.168" /><path
         id="path34"
         style="fill:#100f0d;fill-opacity:1;fill-rule:nonzero;stroke:none"
         d="m 4192.2,396.59 -14.85,46.93 c -1.05,3.32 -109.98,334.269 -518.29,478.011 l -65.92,23.219 278.68,45.41 5.74,-35.238 -144.95,-23.613 C 4027.13,806.441 4151.73,591.77 4193.7,498.82 c 67.11,206.071 8.18,390.321 7.54,392.289 l -6.97,21.172 22.17,2.168 c 170.63,16.68 317.53,-12.527 393.83,-32.797 -241.16,295.028 -449.88,378.308 -452.04,379.148 l 12.88,33.29 c 9.71,-3.76 241.03,-96.12 502.83,-435.219 l 37.72,-48.859 -57.98,21.187 c -1.91,0.711 -185.49,66.66 -412.44,49.571 15.63,-61.258 49.84,-243.161 -30.37,-438.649 L 4192.2,396.59" /><path
         id="path36"
         style="fill:#ffffff;fill-opacity:1;fill-rule:nonzero;stroke:none"
         d="m 448.371,1378.61 c 0,0 1748.859,1133.17 3801.099,0 L 3874.69,977.07 c 0,0 -1383.01,820.87 -3042.635,0 l -383.684,401.54" /><path
         id="path38"
         style="fill:#100f0d;fill-opacity:1;fill-rule:nonzero;stroke:none"
         d="M 476.531,1374.98 835.926,998.871 C 1324.3,1238.32 1836.5,1359.74 2358.5,1359.74 c 826.02,0 1420.14,-309.08 1512.74,-360.228 L 4220.77,1374 c -596.6,325.41 -1225.26,490.39 -1868.89,490.39 -1013.7,0 -1751.192,-414.93 -1875.349,-489.41 z m 3401.419,-420.589 -12.37,7.32 c -6.11,3.629 -621.38,362.339 -1507.08,362.339 -520.65,0 -1031.56,-122.12 -1518.531,-362.98 l -11.75,-5.82 -407.645,426.62 18.098,11.7 c 7.816,5.08 794.738,506.51 1913.208,506.51 656.98,0 1298.32,-170.18 1906.22,-505.84 l 20.04,-11.07 -400.19,-428.779" /><path
         id="path40"
         style="fill:#231f20;fill-opacity:1;fill-rule:nonzero;stroke:none"
         d="m 1402.52,1343.98 c 13.86,4.87 25.54,11.3 35.05,19.22 4.04,3.37 7.93,7.37 11.66,12.02 3.71,4.65 6.69,9.92 8.93,15.82 2.22,5.89 3.56,12.46 3.99,19.68 0.44,7.22 -0.51,15.25 -2.87,24.09 -3.05,11.44 -7.51,20.62 -13.43,27.54 -5.91,6.9 -12.4,12.19 -19.44,15.85 -7.04,3.65 -14.3,5.98 -21.72,6.98 -7.44,1 -14.24,1.32 -20.39,0.97 -6.16,-0.36 -11.26,-0.98 -15.29,-1.87 -4.03,-0.88 -6.19,-1.37 -6.47,-1.45 -8.3,-2.41 -12.44,-3.63 -20.73,-6.1 16.49,-55.4 24.73,-83.1 41.22,-138.49 7.79,2.32 11.69,3.47 19.49,5.74 z m -98.25,258.85 c 14.65,-49.2 21.97,-73.81 36.62,-123.01 1.86,0.55 2.79,0.83 4.65,1.38 14.89,4.69 27.53,11.03 37.88,18.54 4.51,3.28 8.92,6.93 12.99,11 4.08,4.07 7.47,8.71 10.18,13.92 2.72,5.2 4.48,10.85 5.3,16.93 0.8,6.08 0.23,12.75 -1.74,20.02 -0.93,3.43 -1.39,5.14 -2.32,8.57 -3.87,14.28 -10.13,24.44 -18.82,30.43 -8.7,5.99 -17.58,9.76 -26.45,11.1 -10.44,1.57 -21.79,0.97 -33.71,-1.65 -9.84,-2.86 -14.76,-4.3 -24.58,-7.23 z m 140.76,-95.8 c 10.28,1.33 21.53,2.11 33.73,2.31 12.19,0.21 23.94,-1.23 35.21,-4.29 11.26,-3.04 21.22,-8.06 29.87,-14.99 8.65,-6.93 14.46,-16.84 17.47,-29.67 2.16,-9.17 2.66,-17.62 1.56,-25.34 -1.11,-7.73 -3.26,-14.66 -6.45,-20.83 -3.19,-6.16 -7.23,-11.7 -12.14,-16.63 -4.91,-4.94 -9.95,-9.4 -15.09,-13.08 -12.13,-8.69 -27.14,-15.61 -44.34,-21 -94.2,-24.94 -141,-39.11 -233.68,-70.84 -0.42,1.22 -0.63,1.83 -1.05,3.06 16.08,5.5 24.13,8.2 40.26,13.5 -34.48,104.91 -51.71,157.36 -86.19,262.27 -17.42,-5.73 -26.12,-8.65 -43.49,-14.59 -0.42,1.22 -0.63,1.83 -1.05,3.06 91.79,31.42 138.09,45.59 231.26,70.86 17.57,3.93 34.32,5.73 49.29,4.67 6.31,-0.45 12.78,-1.59 19.09,-3.05 6.3,-1.46 12.19,-3.81 17.66,-7.02 5.47,-3.23 10.29,-7.39 14.47,-12.46 4.18,-5.07 7.18,-11.4 9.03,-18.98 1.9,-7.84 1.88,-15.32 -0.05,-22.44 -1.93,-7.13 -4.85,-13.87 -8.76,-20.25 -3.9,-6.37 -8.39,-12.15 -13.47,-17.33 -5.07,-5.17 -10.01,-9.63 -14.81,-13.37 -4.81,-3.75 -8.97,-6.71 -12.5,-8.9 -3.53,-2.18 -5.57,-3.35 -6.14,-3.5 0.13,-0.47 0.19,-0.7 0.31,-1.17" /><path
         id="path42"
         style="fill:#231f20;fill-opacity:1;fill-rule:nonzero;stroke:none"
         d="m 1804.24,1695.19 c -0.82,5.32 -3.6,9.53 -8.36,12.61 -4.76,3.06 -10.14,4.13 -16.12,3.18 -9.32,-1.49 -13.99,-2.24 -23.31,-3.79 -0.21,1.28 -0.31,1.91 -0.52,3.19 37.31,6.19 56,9.04 93.43,14.27 0.18,-1.28 0.27,-1.92 0.45,-3.2 -9.35,-1.3 -14.02,-1.97 -23.36,-3.34 -6,-0.88 -10.81,-3.5 -14.44,-7.85 -3.62,-4.36 -5.01,-9.2 -4.2,-14.52 11.47,-75.33 17.2,-113 28.68,-188.33 1.33,-8.78 0.21,-18.47 -3.31,-29.09 -3.52,-10.62 -11.57,-21.52 -23.94,-32.82 -9.41,-8.6 -20.3,-14.81 -32.71,-18.6 -12.43,-3.8 -24.82,-6.84 -37.21,-9.13 -12.39,-2.3 -24.8,-3.78 -37.24,-4.44 -12.45,-0.66 -25.21,-0.01 -37.48,2.53 -6.24,1.28 -12.42,3.32 -18.25,5.66 -5.82,2.33 -11.24,5.71 -16.18,9.73 -11.2,9.1 -19.13,21.57 -22.67,37.59 -17.75,80.4 -26.63,120.6 -44.38,201 -17.79,-3.92 -26.67,-5.94 -44.42,-10.09 -0.3,1.26 -0.44,1.89 -0.74,3.15 69.64,16.27 104.62,23.56 174.79,36.44 0.24,-1.27 0.35,-1.9 0.59,-3.18 -11.27,-2.06 -16.9,-3.12 -28.16,-5.28 15.34,-80.07 23.01,-120.1 38.35,-200.18 1.62,-8.45 3.99,-15.94 7.13,-22.46 3.12,-6.54 7.13,-11.53 11.73,-15.04 7.07,-5.37 15.05,-9.71 23.88,-12.61 8.83,-2.9 18.35,-3.46 28.6,-1.69 7.47,1.3 14.4,3.45 20.73,6.4 5.54,2.57 10.8,6.21 15.75,10.97 4.94,4.75 9.12,9.91 12.53,15.49 3.42,5.58 5.96,11.41 7.6,17.53 1.65,6.1 2.05,11.95 1.19,17.54 -11.38,75.34 -17.07,113.01 -28.43,188.36" /><path
         id="path44"
         style="fill:#231f20;fill-opacity:1;fill-rule:nonzero;stroke:none"
         d="m 1990.34,1737.97 c 5.15,-50.92 7.72,-76.38 12.88,-127.3 10.62,1.08 15.93,1.59 26.56,2.59 11.04,1.03 20.2,2.59 27.49,4.7 7.29,2.11 13.03,5.28 17.24,9.53 4.2,4.25 7,9.74 8.39,16.46 1.39,6.71 1.69,15.31 0.88,25.78 -0.27,3.54 -0.41,5.31 -0.68,8.85 -1.14,14.75 -5.77,26.35 -13.95,34.73 -8.18,8.38 -17.01,14.46 -26.39,18.25 -10.97,4.42 -23.2,7.11 -36.63,7.97 -6.32,-0.61 -9.48,-0.92 -15.79,-1.56 z m 145.9,-151.12 c 8.22,-8.08 17.82,-18.22 27.55,-30.47 9.73,-12.25 19.12,-24.21 28.2,-35.89 9.08,-11.67 17.21,-21.68 24.44,-29.98 7.24,-8.31 12.77,-12.4 16.68,-12.25 0.04,-1.13 0.06,-1.69 0.11,-2.82 -29.8,-1.14 -44.69,-1.87 -74.46,-3.65 -14.79,-0.89 -27.77,2.09 -39.08,8.97 -11.31,6.88 -21.84,15.72 -31.64,26.55 -9.79,10.82 -19.1,22.47 -27.93,34.93 -8.83,12.47 -18.1,23.93 -27.76,34.37 -10.34,11.17 -17.26,19.09 -20.64,23.76 -3.38,4.66 -6.12,7.03 -8.17,7.1 5.82,-57.51 8.73,-86.26 14.54,-143.76 16.7,1.69 25.06,2.48 41.77,3.97 0.12,-1.29 0.18,-1.94 0.29,-3.22 -70.31,-6.25 -105.41,-10.28 -175.4,-20.14 -0.18,1.28 -0.27,1.92 -0.45,3.2 16.8,2.37 25.21,3.5 42.04,5.66 -14.06,109.53 -21.09,164.29 -35.15,273.82 -18.18,-2.33 -27.26,-3.56 -45.42,-6.12 -0.18,1.28 -0.27,1.92 -0.45,3.21 94.28,13.28 141.61,18.41 236.38,25.63 18.79,0.08 36.07,-1.84 50.82,-6.19 6.39,-1.88 12.8,-4.54 19,-7.55 6.2,-3.01 11.83,-6.88 16.88,-11.6 5.05,-4.72 9.15,-10.3 12.32,-16.74 3.16,-6.44 4.94,-13.97 5.36,-22.56 0.73,-15.06 -2.61,-27 -9.93,-35.86 -7.33,-8.87 -15.96,-15.68 -25.91,-20.46 -9.96,-4.78 -20.11,-8.05 -30.51,-9.83 -10.4,-1.79 -18.2,-2.91 -23.43,-3.3 -2.27,-0.17 -3.4,-0.25 -5.66,-0.43 -22.65,-1.9 -33.97,-2.94 -56.59,-5.19 13.95,1.02 27.59,1.12 40.36,-0.14 11.06,-1.1 22.53,-3.56 33.97,-6.91 11.45,-3.36 20.74,-9.09 27.87,-16.11" /><path
         id="path46"
         style="fill:#231f20;fill-opacity:1;fill-rule:nonzero;stroke:none"
         d="m 2561.17,1475.53 c -0.73,-15.19 0.02,-29.09 1.39,-40.92 0.58,-5.08 1.41,-10.19 2.63,-15.11 1.22,-4.93 2.74,-9.39 4.56,-13.42 1.81,-4.01 4,-7.25 6.58,-9.71 2.58,-2.44 9.59,-4.06 9.59,-4.06 0,0 -30.11,4.78 -42.24,11.22 -12.12,6.44 -22.45,14.54 -30.97,24.34 -8.53,9.81 -15.35,20.98 -20.44,33.54 -5.1,12.58 -10.38,38.75 -10.38,38.75 -0.33,0.06 -9.35,-10.8 -18.13,-14.18 -8.78,-3.38 -17.88,-5.85 -27.04,-7.6 -10.85,-2.07 -22.82,-3.46 -35.65,-3.87 -6.86,0.07 -10.29,0.1 -17.15,0.14 -10.88,0.06 -20.78,0.34 -29.71,0.85 -8.93,0.52 -17.16,1.53 -24.71,3.07 -7.56,1.54 -14.65,3.73 -21.26,6.58 -6.63,2.85 -13.1,6.77 -19.36,11.34 -7.53,5.5 -14.84,12.5 -21.44,21.07 -6.6,8.56 -12.42,18.08 -17.46,28.54 -5.04,10.47 -9.09,21.7 -12.11,33.71 -3.02,12.01 -4.78,24.33 -5.24,36.96 -0.47,12.64 0.38,25.06 2.59,37.26 2.21,12.2 5.57,23.68 10.12,34.47 4.54,10.78 10.04,20.64 16.52,29.57 6.47,8.93 13.88,16.29 21.71,22.14 6.48,4.85 13.28,9.02 20.32,12.1 7.03,3.07 14.63,5.46 22.77,7.16 8.14,1.7 17.04,2.83 26.71,3.4 9.67,0.57 20.41,0.84 32.21,0.77 6.53,-0.04 9.8,-0.07 16.33,-0.13 10.27,-0.11 19.18,-1.18 26.7,-3.2 7.53,-2.02 14.13,-4.04 19.82,-6.04 5.74,-2.07 8.61,-3.11 14.34,-5.2 2.39,-0.87 4.55,-1.81 6.48,-2.81 1.93,-1 3.93,-1.93 6.01,-2.8 2.09,-0.86 4.48,-1.54 7.17,-2.04 2.69,-0.49 6.13,-0.8 10.34,-0.95 9.62,-0.33 17.1,0.45 22.45,2.39 5.35,1.93 9.37,4.11 12.04,6.55 2.66,2.44 4.29,4.73 4.84,6.87 0.55,2.12 0.83,3.32 0.84,3.59 1.45,-0.06 2.18,-0.09 3.63,-0.16 -2.14,-46.13 -3.2,-69.19 -5.34,-115.32 -1.41,0.07 -2.11,0.1 -3.52,0.16 0.25,5.38 -1.5,12.26 -5.26,20.64 -3.77,8.38 -7.89,16.57 -12.29,24.56 -3.32,6.02 -7.75,12.68 -13.3,19.88 -5.57,7.21 -11.29,13.28 -17.12,17.95 -4.91,3.93 -10.2,7.85 -15.64,11.76 -5.45,3.91 -11.7,7.44 -18.71,10.55 -7.02,3.11 -14.74,5.62 -23.17,7.5 -8.42,1.88 -17.79,2.87 -28.05,2.96 -3.44,0.02 -5.17,0.04 -8.61,0.06 -3.33,0.01 -5.98,-0.38 -7.94,-1.18 -1.97,-0.8 -4.69,-2.25 -7.93,-4.42 -6.61,-4.42 -11.75,-11.91 -15.33,-22 -3.57,-10.1 -6.21,-21.16 -7.93,-33.13 -1.72,-11.99 -2.69,-24.18 -2.91,-36.55 -0.22,-12.37 -0.31,-23.27 -0.26,-32.69 0.06,-9.04 0.08,-13.56 0.13,-22.6 0.06,-9.43 0.28,-20.32 0.63,-32.69 0.36,-12.37 1.43,-24.55 3.19,-36.51 1.76,-11.97 4.36,-22.99 7.76,-33.07 3.41,-10.08 8.2,-17.55 14.32,-21.98 3,-2.18 5.51,-3.65 7.32,-4.46 1.81,-0.82 4.25,-1.23 7.33,-1.25 6.87,-0.04 10.3,-0.07 17.17,-0.14 12.29,1.48 23.42,6.17 33.36,13.61 4.2,3.15 8.5,7.15 12.7,12.03 4.2,4.88 8.08,10.84 11.67,17.87 3.58,7.04 6.59,15.22 9.01,24.58 2.4,9.35 3.95,20.07 4.61,32.16 -1.16,7.31 -1.74,10.96 -2.91,18.26 -2.16,4.91 -4.74,8.69 -7.71,11.33 -2.95,2.63 -5.92,4.74 -8.76,6.08 -3.08,1.45 -6.64,2.31 -10.39,2.66 -20.04,0.44 -30.06,0.59 -50.11,0.75 0.02,1.46 0.02,2.18 0.03,3.63 32.45,-0.25 48.67,-0.56 81.11,-1.56 17.68,-1.89 33.35,-8.5 46.76,-19.1 5.79,-4.58 11.47,-10.37 16.75,-17.35 5.28,-7 9.88,-15.51 13.79,-25.56 3.9,-10.04 6.83,-21.79 8.77,-35.24 1.94,-13.44 2.22,-29.06 1.38,-46.36" /><path
         id="path48"
         style="fill:#231f20;fill-opacity:1;fill-rule:nonzero;stroke:none"
         d="m 2825.44,1484.32 c 6.48,6.71 11.9,13.05 15.89,19.03 3.98,5.96 7.08,11.65 9.28,17.04 2.2,5.4 3.73,10.63 4.59,15.66 0.85,5.03 1.61,9.97 2.28,14.76 1.55,-0.21 2.32,-0.32 3.86,-0.54 -6.02,-42.52 -9.03,-63.78 -15.06,-106.3 -10.3,1.46 -15.46,2.17 -25.77,3.55 -27.62,3.7 -41.44,5.41 -69.12,8.54 -14,1.59 -21,2.35 -35.02,3.79 -38.37,3.95 -57.58,5.66 -96.02,8.53 -14.87,1.11 -22.31,1.63 -37.2,2.58 0.09,1.29 0.13,1.94 0.21,3.23 14.9,-0.95 22.34,-1.47 37.23,-2.58 8.23,110.12 12.34,165.17 20.57,275.29 -16.08,1.2 -24.12,1.76 -40.22,2.79 0.09,1.29 0.13,1.93 0.21,3.22 16.11,-1.02 24.16,-1.58 40.25,-2.78 41.61,-3.11 62.4,-4.96 103.92,-9.24 12.46,-1.28 18.69,-1.95 31.14,-3.34 41.13,-4.58 61.68,-7.16 102.7,-12.9 -5.2,-37.25 -7.81,-55.88 -13.02,-93.14 -1.58,0.22 -2.36,0.33 -3.94,0.55 0.81,5.87 1.41,11.22 1.78,16.05 0.37,4.84 0.21,9.62 -0.49,14.34 -0.71,4.71 -2.05,9.71 -4.04,15.01 -1.99,5.3 -4.97,11.33 -8.9,18.1 -4.44,7.63 -9.24,13.85 -14.4,18.57 -5.16,4.74 -10.86,8.44 -17.08,11.1 -6.21,2.66 -12.98,4.64 -20.29,5.9 -7.31,1.28 -15.02,2.36 -23.13,3.26 -12.26,1.37 -18.39,2.03 -30.66,3.29 -5.43,-52.68 -8.14,-79.01 -13.56,-131.69 7.48,-0.77 11.21,-1.16 18.69,-1.97 5.22,-0.57 10.02,-0.96 14.39,-1.19 4.38,-0.22 8.59,0.05 12.64,0.8 4.06,0.75 7.81,2.14 11.3,4.16 3.48,2.03 7.09,4.98 10.79,8.86 5.76,6.04 10.52,12.26 14.29,18.57 3.75,6.31 6.15,13.47 7.16,21.48 1.06,-0.13 1.59,-0.2 2.65,-0.33 0.36,-0.05 0.53,-0.07 0.89,-0.12 -6.28,-49.33 -9.42,-73.99 -15.7,-123.32 -0.34,0.05 -0.51,0.07 -0.85,0.11 -1.02,0.13 -1.54,0.2 -2.56,0.32 0.98,7.75 0.54,15.14 -1.34,22.14 -1.88,7 -4.98,14.31 -9.31,21.89 -4.82,8.44 -10.88,14.19 -18.14,17.19 -7.27,3.01 -16.13,5.09 -26.56,6.22 -7.47,0.81 -11.2,1.21 -18.67,1.98 -5.76,-55.89 -8.64,-83.83 -14.4,-139.71 14.03,-1.45 21.04,-2.21 35.06,-3.79 7.78,-0.89 14.62,-1.49 20.5,-1.78 5.89,-0.3 11.59,0.22 17.12,1.57 5.53,1.34 11.1,3.95 16.71,7.85 5.59,3.88 12.03,9.82 19.35,17.4" /><path
         id="path50"
         style="fill:#231f20;fill-opacity:1;fill-rule:nonzero;stroke:none"
         d="m 3061.03,1690.92 c -9.6,-50.28 -14.4,-75.41 -24,-125.68 10.53,-2.01 15.78,-3.04 26.3,-5.12 10.91,-2.17 20.17,-3.3 27.78,-3.36 7.61,-0.07 14.06,1.32 19.32,4.19 5.26,2.87 9.53,7.33 12.79,13.37 3.26,6.04 6.01,14.19 8.22,24.45 0.75,3.47 1.12,5.21 1.87,8.68 3.12,14.46 1.98,26.91 -3.5,37.28 -5.47,10.37 -12.24,18.73 -20.19,25.04 -9.29,7.38 -20.28,13.45 -32.97,18.13 -6.24,1.22 -9.37,1.82 -15.62,3.02 z m 97.26,-186.61 c 5.6,-10.1 11.96,-22.58 17.84,-37.11 5.88,-14.53 11.52,-28.69 16.94,-42.49 5.42,-13.79 10.41,-25.71 15.02,-35.75 4.6,-10.04 8.77,-15.56 12.59,-16.54 -0.28,-1.09 -0.42,-1.64 -0.7,-2.73 -29.1,7.48 -43.68,11.06 -72.9,17.9 -14.5,3.39 -26.17,9.96 -35.09,19.8 -8.93,9.84 -16.54,21.33 -22.88,34.51 -6.34,13.18 -11.97,27 -16.91,41.48 -4.93,14.47 -10.58,28.11 -16.89,40.88 -6.75,13.66 -11.12,23.24 -13.04,28.68 -1.92,5.43 -3.89,8.48 -5.84,9.13 -10.84,-56.77 -16.26,-85.16 -27.1,-141.93 16.54,-3.15 24.8,-4.79 41.31,-8.15 -0.26,-1.26 -0.38,-1.9 -0.64,-3.16 -69.44,14.14 -104.31,20.3 -174.23,30.83 0.19,1.28 0.29,1.92 0.48,3.19 16.79,-2.52 25.18,-3.84 41.94,-6.57 17.79,108.98 26.68,163.47 44.46,272.46 -18.11,2.95 -27.17,4.37 -45.31,7.1 0.2,1.28 0.29,1.92 0.49,3.2 94.18,-14.18 141.12,-22.78 234.47,-43.02 18.11,-5.31 34.22,-12.1 47.2,-20.5 5.62,-3.64 11.04,-8.02 16.15,-12.69 5.12,-4.66 9.44,-9.99 12.97,-15.96 3.52,-5.97 5.89,-12.5 7.1,-19.58 1.2,-7.07 0.76,-14.81 -1.29,-23.16 -3.6,-14.64 -10.24,-25.13 -19.84,-31.51 -9.6,-6.4 -19.88,-10.44 -30.84,-12.16 -10.96,-1.72 -21.69,-1.95 -32.22,-0.68 -10.52,1.27 -18.36,2.44 -23.51,3.56 -2.23,0.49 -3.35,0.73 -5.58,1.21 -22.35,4.68 -33.54,6.92 -55.95,11.23 13.72,-3.01 26.87,-6.83 38.79,-11.69 10.35,-4.22 20.69,-9.86 30.76,-16.36 10.05,-6.49 17.38,-14.65 22.25,-23.42" /><path
         id="path52"
         style="fill:#231f20;fill-opacity:1;fill-rule:nonzero;stroke:none"
         d="m 3460.28,1489.55 c 23.38,-20.65 38.2,-40.63 44.74,-59.44 6.56,-18.82 6.53,-37.53 0.17,-56.11 -4.36,-12.73 -11.04,-23.3 -19.98,-31.77 -8.94,-8.48 -19.47,-14.87 -31.55,-19.21 -12.08,-4.36 -25.11,-6.54 -39.06,-6.58 -13.97,-0.04 -28.19,2.19 -42.75,6.66 -2.1,0.64 -3.15,0.96 -5.25,1.6 -12.95,3.96 -25.02,10.03 -36.29,18.22 -11.28,8.21 -23.02,17.78 -33.49,28.7 -0.68,0.71 -1.84,1.35 -3.47,1.8 -3.02,0.84 -6.19,0.54 -9.52,-0.91 -3.35,-1.45 -6.67,-3.43 -9.87,-5.46 -3.67,-2.32 -7.56,-5.19 -11.13,-8.68 -1.3,0.36 -1.96,0.53 -3.26,0.89 8.89,45.26 13.28,67.9 21.96,113.2 1.35,-0.36 2.03,-0.54 3.38,-0.9 -0.49,-5.17 -0.91,-10.9 -0.94,-16.88 -0.02,-5.22 0.45,-11.41 1.12,-18.29 0.67,-6.87 2.43,-14.35 4.88,-22.24 2.7,-8.69 5.88,-18.24 9.73,-28.25 3.85,-10.02 9.18,-18.53 16.02,-25.51 10.69,-10.92 22.46,-19.44 34.87,-25.78 3.8,-1.95 8.16,-3.72 13.02,-5.2 5.39,-1.64 11.07,-3.1 17.04,-4.38 5.95,-1.28 11.6,-1.83 16.65,-1.39 7.24,0.63 13.26,2.5 17.69,5.19 4.44,2.67 8.1,8.49 10.98,17.45 2.06,6.41 1.12,13.79 -2.85,22.1 -3.97,8.32 -9.89,17.32 -17.78,26.96 -7.87,9.63 -17.15,19.86 -27.85,30.64 -10.69,10.79 -21.93,21.9 -33.41,33.34 -19.07,19.01 -31.84,37.75 -38.07,55.88 -6.23,18.13 -6.98,36.56 -1.99,55.28 5.88,22.1 20.11,36.1 42.9,41.7 22.79,5.59 53.55,2.91 91.86,-8.65 13.17,-3.97 25.65,-10.2 37.39,-18.67 11.73,-8.49 23.3,-19.24 34.24,-27.92 1.39,-1.1 2.64,-1.7 3.22,-1.89 3.18,-1.04 6.62,-1.05 10.33,-0.01 3.71,1.04 7.38,2.69 10.88,4.48 4.01,2.07 8.29,4.61 12.27,7.82 1.39,-0.47 2.09,-0.7 3.48,-1.17 -7.17,-34.55 -10.81,-51.82 -18.17,-86.32 -1.36,0.46 -2.04,0.69 -3.39,1.15 -0.34,1.83 -0.95,4.46 -1.63,7.8 -0.61,2.96 -1.63,7.16 -3.21,12.36 -1.58,5.21 -3.44,12.11 -5.92,20.06 -0.58,1.88 -1.6,4.51 -2.91,7.76 -1.3,3.26 -2.95,6.78 -4.9,10.54 -1.95,3.75 -4.14,7.58 -6.54,11.47 -2.4,3.89 -4.62,7.97 -6.84,10.7 -6.26,7.73 -16.49,15.37 -26.39,22.55 -9.9,7.17 -21.05,12.93 -33.16,16.72 -3.75,1.18 -8.17,1.97 -13.12,2.46 -4.95,0.48 -9.73,0.15 -14.36,-1.01 -4.63,-1.17 -8.88,-3.23 -12.74,-6.17 -3.86,-2.94 -6.56,-7.13 -8.13,-12.56 -2.62,-9.05 1.74,-20.92 12.86,-35.72 11.1,-14.8 30.75,-34.12 58.24,-58.41" /><path
         id="path54"
         style="fill:#ffffff;fill-opacity:1;fill-rule:nonzero;stroke:none"
         d="M 4255.59,3582.48 H 456.07 v 485.14 h 3799.52 v -485.14" /><path
         id="path56"
         style="fill:none;stroke:#100f0d;stroke-width:40;stroke-linecap:butt;stroke-linejoin:miter;stroke-miterlimit:7;stroke-dasharray:none;stroke-opacity:1"
         d="M 4255.59,3582.48 H 456.07 v 485.14 h 3799.52 z" /><g
         transform="scale(10)"
         id="g58"><text
           id="text62"
           style="font-variant:normal;font-weight:900;font-size:45.82529831px;font-family:NouvelleVague;-inkscape-font-specification:NouvelleVague-Black;writing-mode:lr-tb;fill:#231f20;fill-opacity:1;fill-rule:nonzero;stroke:none"
           transform="matrix(1,0,0,-1,62.3051,366.815)"><tspan
             id="tspan60"
             y="0"
             x="0 30.610407 65.620934 100.85973 130.87434 154.61165 189.85045 222.24796 257.48727 283.92764 319.39545">CONTINENTAL</tspan></text>
<text
           id="text66"
           style="font-variant:normal;font-weight:900;font-size:10.90629959px;font-family:NouvelleVague;-inkscape-font-specification:NouvelleVague-Black;writing-mode:lr-tb;fill:#231f20;fill-opacity:1;fill-rule:nonzero;stroke:none"
           transform="matrix(1,0,0,-1,187.8091,116.227)"><tspan
             id="tspan64"
             y="0"
             x="0 6.9473133 16.195377 24.211508 33.318268 40.232327 49.524315 58.631077 67.214073 72.558792 79.800003 87.510933">CHARLBROILED</tspan></text>
<text
           id="text70"
           style="font-variant:normal;font-weight:900;font-size:19.87420082px;font-family:NouvelleVague;-inkscape-font-specification:NouvelleVague-Black;writing-mode:lr-tb;fill:#231f20;fill-opacity:1;fill-rule:nonzero;stroke:none"
           transform="matrix(1,0,0,-1,138.5021,4.968)"><tspan
             id="tspan68"
             y="0"
             x="0 15.759799 26.054701 41.337399 54.29538 60.35701 70.651413 85.537186">DINE IN </tspan></text>
<text
           id="text74"
           style="font-variant:normal;font-weight:normal;font-size:19.87420082px;font-family:MyriadPro;-inkscape-font-specification:MyriadPro-Regular;writing-mode:lr-tb;fill:#231f20;fill-opacity:1;fill-rule:nonzero;stroke:none"
           transform="matrix(1,0,0,-1,230.1013,4.968)"><tspan
             id="tspan72"
             y="0"
             x="0 6.8168507">/ </tspan></text>
<text
           id="text78"
           style="font-variant:normal;font-weight:900;font-size:19.87420082px;font-family:NouvelleVague;-inkscape-font-specification:NouvelleVague-Black;writing-mode:lr-tb;fill:#231f20;fill-opacity:1;fill-rule:nonzero;stroke:none"
           transform="matrix(1,0,0,-1,241.1302,4.968)"><tspan
             id="tspan76"
             y="0"
             x="0 11.467322 26.193415 42.887711 55.845688 61.907318 77.448311 92.651398">TAKE OUT</tspan></text>
</g></g></g></svg>